<svg width="118" height="111" viewBox="0 0 118 111" fill="none" xmlns="http://www.w3.org/2000/svg">
<path d="M41.4912 39.9924L42.125 39.2189L41.4912 39.9924ZM6.79848 110.214C7.19681 110.596 7.82986 110.583 8.21241 110.185L14.4465 103.694C14.8291 103.296 14.8163 102.662 14.418 102.28C14.0196 101.897 13.3866 101.91 13.004 102.308L7.4626 108.078L1.69264 102.537C1.29431 102.154 0.661272 102.167 0.278717 102.566C-0.103838 102.964 -0.0910511 103.597 0.30728 103.98L6.79848 110.214ZM116.491 0.492382C115.621 0.000324436 115.621 0.000303615 115.621 0.000284986C115.621 0.00028193 115.621 0.00026583 115.621 0.000259719C115.621 0.000247496 115.621 0.000244715 115.621 0.000251395C115.621 0.000265072 115.621 0.000316512 115.621 0.000406032C115.62 0.000584734 115.62 0.000914702 115.62 0.00139596C115.619 0.00235779 115.619 0.00392333 115.617 0.00608816C115.615 0.0104172 115.611 0.0171427 115.606 0.0262295C115.596 0.0444029 115.58 0.0720208 115.559 0.108803C115.516 0.182367 115.453 0.292582 115.368 0.437205C115.199 0.726458 114.947 1.1533 114.615 1.69978L115.47 2.21819L116.326 2.73659C116.663 2.18046 116.921 1.7444 117.095 1.4464C117.182 1.2974 117.248 1.18291 117.293 1.10517C117.315 1.06629 117.332 1.03661 117.344 1.0164C117.349 1.00629 117.354 0.998549 117.357 0.993211C117.358 0.990543 117.359 0.988474 117.36 0.987011C117.361 0.986279 117.361 0.985698 117.361 0.985269C117.361 0.985055 117.361 0.984879 117.362 0.98474C117.362 0.984671 117.362 0.984611 117.362 0.984561C117.362 0.984536 117.362 0.984506 117.362 0.984493C117.362 0.984465 117.362 0.984439 116.491 0.492382ZM113.348 5.60286L112.508 5.05997C111.859 6.0646 111.115 7.18962 110.283 8.40799L111.109 8.97164L111.935 9.53529C112.777 8.30225 113.53 7.16334 114.188 6.14575L113.348 5.60286ZM108.806 12.2614L107.994 11.6781C107.246 12.7198 106.449 13.803 105.608 14.9153L106.405 15.5186L107.203 16.1219C108.055 14.9956 108.861 13.8991 109.618 12.8448L108.806 12.2614ZM103.942 18.6905L103.16 18.0669C102.347 19.0857 101.502 20.1181 100.626 21.1559L101.39 21.8009L102.154 22.4459C103.043 21.3932 103.9 20.3465 104.723 19.3142L103.942 18.6905ZM98.7473 24.8397L98.0029 24.1721C97.1224 25.1539 96.2167 26.1331 95.2876 27.1026L96.0096 27.7945L96.7317 28.4864C97.6769 27.5 98.5975 26.5046 99.4918 25.5074L98.7473 24.8397ZM93.171 30.6518L92.4749 29.9339C91.5225 30.8572 90.5496 31.7646 89.558 32.6493L90.2237 33.3955L90.8895 34.1417C91.903 33.2374 92.8961 32.3111 93.867 31.3698L93.171 30.6518ZM87.1592 36.0054L86.5294 35.2286C85.4962 36.0665 84.446 36.8746 83.3806 37.6465L83.9674 38.4563L84.5541 39.2661C85.6508 38.4715 86.7296 37.6411 87.7891 36.7821L87.1592 36.0054ZM80.6352 40.7177L80.1008 39.8725C78.9755 40.584 77.8366 41.2499 76.6859 41.8634L77.1563 42.7458L77.6267 43.6283C78.8241 42.9899 80.0057 42.2989 81.1697 41.5629L80.6352 40.7177ZM73.5268 44.4871L73.1351 43.567C71.918 44.0851 70.691 44.5389 69.4559 44.9209L69.7514 45.8762L70.0468 46.8316C71.3517 46.428 72.643 45.9502 73.9186 45.4072L73.5268 44.4871ZM65.8479 46.8387L65.6681 45.855C64.3869 46.0892 63.0994 46.2399 61.8074 46.2994L61.8534 47.2983L61.8994 48.2973C63.2857 48.2335 64.6627 48.0719 66.0277 47.8224L65.8479 46.8387ZM57.8367 47.1926L57.9364 46.1976C56.6714 46.0708 55.402 45.8498 54.1298 45.5266L53.8836 46.4958L53.6374 47.465C55.0068 47.8129 56.3741 48.051 57.7369 48.1876L57.8367 47.1926ZM50.0744 45.2288L50.4562 44.3045C49.2964 43.8255 48.134 43.2549 46.9704 42.5862L46.4721 43.4533L45.9738 44.3203C47.2104 45.0309 48.4506 45.64 49.6926 46.153L50.0744 45.2288ZM43.1118 41.253L43.705 40.448C43.1783 40.0599 42.6516 39.6504 42.125 39.2189L41.4912 39.9924L40.8573 40.7659C41.4099 41.2186 41.9637 41.6492 42.5186 42.0581L43.1118 41.253ZM41.4912 39.9924L42.125 39.2189C41.5533 38.7504 40.9896 38.3125 40.4338 37.9045L39.8421 38.7107L39.2503 39.5168C39.7758 39.9025 40.3115 40.3185 40.8573 40.7659L41.4912 39.9924ZM36.4629 36.5518L36.9372 35.6715C35.6018 34.952 34.3108 34.4162 33.0622 34.0571L32.7858 35.0182L32.5094 35.9792C33.6025 36.2936 34.7612 36.7709 35.9885 37.4322L36.4629 36.5518ZM28.8147 34.5142L28.7679 33.5152C27.2567 33.5859 25.8403 33.9487 24.5195 34.5655L24.9426 35.4716L25.3657 36.3777C26.4566 35.8682 27.6179 35.5712 28.8614 35.5131L28.8147 34.5142ZM21.6577 37.7432L20.9733 37.014C19.9851 37.9416 19.0721 39.0269 18.2275 40.2395L19.0481 40.811L19.8687 41.3825C20.6479 40.2637 21.4721 39.2889 22.3421 38.4723L21.6577 37.7432ZM16.9996 44.2545L16.1099 43.798C15.5049 44.9772 14.9394 46.2328 14.4106 47.5507L15.3387 47.923L16.2668 48.2954C16.7758 47.0268 17.3161 45.8282 17.8893 44.7109L16.9996 44.2545ZM13.9703 51.7151L13.0193 51.4059C12.6077 52.6717 12.2222 53.9791 11.8612 55.3188L12.8268 55.579L13.7924 55.8392C14.1454 54.5289 14.5213 53.2545 14.9213 52.0243L13.9703 51.7151ZM11.861 59.4882L10.8857 59.2673C10.5902 60.5723 10.3144 61.8989 10.0571 63.2398L11.0392 63.4282L12.0213 63.6167C12.2748 62.2956 12.546 60.9907 12.8363 59.709L11.861 59.4882ZM10.3373 67.3907L9.35033 67.2296C9.13331 68.5589 8.93253 69.8955 8.74677 71.2325L9.73726 71.3701L10.7277 71.5077C10.9115 70.1853 11.1099 68.8644 11.3242 67.5519L10.3373 67.3907ZM9.22569 75.3623L8.23257 75.2452C8.07368 76.5936 7.92895 77.9358 7.79711 79.2649L8.79223 79.3636L9.78734 79.4624C9.91804 78.1447 10.0615 76.8147 10.2188 75.4793L9.22569 75.3623ZM8.42884 83.371L7.43223 83.2889C7.31955 84.6555 7.21981 85.9998 7.13159 87.3134L8.12933 87.3805L9.12708 87.4475C9.21468 86.1433 9.31366 84.8091 9.42545 83.4532L8.42884 83.371ZM7.888 91.4052L6.8894 91.3524C6.81511 92.7564 6.75359 94.1104 6.70275 95.4025L7.70199 95.4418L8.70121 95.4812C8.75171 94.1975 8.81282 92.8526 8.8866 91.458L7.888 91.4052ZM7.57012 99.4723L6.57046 99.4462C6.53195 100.922 6.50744 102.272 6.4924 103.471L7.49232 103.484L8.49225 103.496C8.50718 102.305 8.53152 100.964 8.56978 99.4984L7.57012 99.4723ZM7.47254 107.532L6.47255 107.535C6.47481 108.169 6.4795 108.662 6.48362 108.998C6.48568 109.165 6.48761 109.293 6.48903 109.38C6.48973 109.423 6.49031 109.456 6.49071 109.478C6.49092 109.489 6.49108 109.498 6.49119 109.503C6.49124 109.506 6.49129 109.509 6.49132 109.51C6.49133 109.511 6.49134 109.511 6.49135 109.512C6.49136 109.512 6.49136 109.512 6.49137 109.512C6.49137 109.512 6.49136 109.512 6.49137 109.512C6.49137 109.513 6.49137 109.513 6.49137 109.513C6.49136 109.513 6.49137 109.513 7.49116 109.492C8.49095 109.472 8.49096 109.472 8.49097 109.472C8.49097 109.472 8.49096 109.472 8.49096 109.472C8.49096 109.472 8.49096 109.472 8.49096 109.472C8.49096 109.472 8.49096 109.472 8.49095 109.472C8.49095 109.472 8.49095 109.471 8.49093 109.471C8.49091 109.469 8.49087 109.468 8.49082 109.465C8.49072 109.46 8.49057 109.452 8.49038 109.442C8.49 109.421 8.48944 109.389 8.48876 109.347C8.48738 109.263 8.48549 109.138 8.48347 108.973C8.47941 108.643 8.47478 108.156 8.47253 107.528L7.47254 107.532ZM41.4912 39.9924L42.125 39.2189L41.4912 39.9924ZM6.79848 110.214C7.19681 110.596 7.82986 110.583 8.21241 110.185L14.4465 103.694C14.8291 103.296 14.8163 102.662 14.418 102.28C14.0196 101.897 13.3866 101.91 13.004 102.308L7.4626 108.078L1.69264 102.537C1.29431 102.154 0.661272 102.167 0.278717 102.566C-0.103838 102.964 -0.0910511 103.597 0.30728 103.98L6.79848 110.214ZM116.491 0.492382C115.621 0.000324436 115.621 0.000303615 115.621 0.000284986C115.621 0.00028193 115.621 0.00026583 115.621 0.000259719C115.621 0.000247496 115.621 0.000244715 115.621 0.000251395C115.621 0.000265072 115.621 0.000316512 115.621 0.000406032C115.62 0.000584734 115.62 0.000914702 115.62 0.00139596C115.619 0.00235779 115.619 0.00392333 115.617 0.00608816C115.615 0.0104172 115.611 0.0171427 115.606 0.0262295C115.596 0.0444029 115.58 0.0720208 115.559 0.108803C115.516 0.182367 115.453 0.292582 115.368 0.437205C115.199 0.726458 114.947 1.1533 114.615 1.69978L115.47 2.21819L116.326 2.73659C116.663 2.18046 116.921 1.7444 117.095 1.4464C117.182 1.2974 117.248 1.18291 117.293 1.10517C117.315 1.06629 117.332 1.03661 117.344 1.0164C117.349 1.00629 117.354 0.998549 117.357 0.993211C117.358 0.990543 117.359 0.988474 117.36 0.987011C117.361 0.986279 117.361 0.985698 117.361 0.985269C117.361 0.985055 117.361 0.984879 117.362 0.98474C117.362 0.984671 117.362 0.984611 117.362 0.984561C117.362 0.984536 117.362 0.984506 117.362 0.984493C117.362 0.984465 117.362 0.984439 116.491 0.492382ZM113.348 5.60286L112.508 5.05997C111.859 6.0646 111.115 7.18962 110.283 8.40799L111.109 8.97164L111.935 9.53529C112.777 8.30225 113.53 7.16334 114.188 6.14575L113.348 5.60286ZM108.806 12.2614L107.994 11.6781C107.246 12.7198 106.449 13.803 105.608 14.9153L106.405 15.5186L107.203 16.1219C108.055 14.9956 108.861 13.8991 109.618 12.8448L108.806 12.2614ZM103.942 18.6905L103.16 18.0669C102.347 19.0857 101.502 20.1181 100.626 21.1559L101.39 21.8009L102.154 22.4459C103.043 21.3932 103.9 20.3465 104.723 19.3142L103.942 18.6905ZM98.7473 24.8397L98.0029 24.1721C97.1224 25.1539 96.2167 26.1331 95.2876 27.1026L96.0096 27.7945L96.7317 28.4864C97.6769 27.5 98.5975 26.5046 99.4918 25.5074L98.7473 24.8397ZM93.171 30.6518L92.4749 29.9339C91.5225 30.8572 90.5496 31.7646 89.558 32.6493L90.2237 33.3955L90.8895 34.1417C91.903 33.2374 92.8961 32.3111 93.867 31.3698L93.171 30.6518ZM87.1592 36.0054L86.5294 35.2286C85.4962 36.0665 84.446 36.8746 83.3806 37.6465L83.9674 38.4563L84.5541 39.2661C85.6508 38.4715 86.7296 37.6411 87.7891 36.7821L87.1592 36.0054ZM80.6352 40.7177L80.1008 39.8725C78.9755 40.584 77.8366 41.2499 76.6859 41.8634L77.1563 42.7458L77.6267 43.6283C78.8241 42.9899 80.0057 42.2989 81.1697 41.5629L80.6352 40.7177ZM73.5268 44.4871L73.1351 43.567C71.918 44.0851 70.691 44.5389 69.4559 44.9209L69.7514 45.8762L70.0468 46.8316C71.3517 46.428 72.643 45.9502 73.9186 45.4072L73.5268 44.4871ZM65.8479 46.8387L65.6681 45.855C64.3869 46.0892 63.0994 46.2399 61.8074 46.2994L61.8534 47.2983L61.8994 48.2973C63.2857 48.2335 64.6627 48.0719 66.0277 47.8224L65.8479 46.8387ZM57.8367 47.1926L57.9364 46.1976C56.6714 46.0708 55.402 45.8498 54.1298 45.5266L53.8836 46.4958L53.6374 47.465C55.0068 47.8129 56.3741 48.051 57.7369 48.1876L57.8367 47.1926ZM50.0744 45.2288L50.4562 44.3045C49.2964 43.8255 48.134 43.2549 46.9704 42.5862L46.4721 43.4533L45.9738 44.3203C47.2104 45.0309 48.4506 45.64 49.6926 46.153L50.0744 45.2288ZM43.1118 41.253L43.705 40.448C43.1783 40.0599 42.6516 39.6504 42.125 39.2189L41.4912 39.9924L40.8573 40.7659C41.4099 41.2186 41.9637 41.6492 42.5186 42.0581L43.1118 41.253ZM41.4912 39.9924L42.125 39.2189C41.5533 38.7504 40.9896 38.3125 40.4338 37.9045L39.8421 38.7107L39.2503 39.5168C39.7758 39.9025 40.3115 40.3185 40.8573 40.7659L41.4912 39.9924ZM36.4629 36.5518L36.9372 35.6715C35.6018 34.952 34.3108 34.4162 33.0622 34.0571L32.7858 35.0182L32.5094 35.9792C33.6025 36.2936 34.7612 36.7709 35.9885 37.4322L36.4629 36.5518ZM28.8147 34.5142L28.7679 33.5152C27.2567 33.5859 25.8403 33.9487 24.5195 34.5655L24.9426 35.4716L25.3657 36.3777C26.4566 35.8682 27.6179 35.5712 28.8614 35.5131L28.8147 34.5142ZM21.6577 37.7432L20.9733 37.014C19.9851 37.9416 19.0721 39.0269 18.2275 40.2395L19.0481 40.811L19.8687 41.3825C20.6479 40.2637 21.4721 39.2889 22.3421 38.4723L21.6577 37.7432ZM16.9996 44.2545L16.1099 43.798C15.5049 44.9772 14.9394 46.2328 14.4106 47.5507L15.3387 47.923L16.2668 48.2954C16.7758 47.0268 17.3161 45.8282 17.8893 44.7109L16.9996 44.2545ZM13.9703 51.7151L13.0193 51.4059C12.6077 52.6717 12.2222 53.9791 11.8612 55.3188L12.8268 55.579L13.7924 55.8392C14.1454 54.5289 14.5213 53.2545 14.9213 52.0243L13.9703 51.7151ZM11.861 59.4882L10.8857 59.2673C10.5902 60.5723 10.3144 61.8989 10.0571 63.2398L11.0392 63.4282L12.0213 63.6167C12.2748 62.2956 12.546 60.9907 12.8363 59.709L11.861 59.4882ZM10.3373 67.3907L9.35033 67.2296C9.13331 68.5589 8.93253 69.8955 8.74677 71.2325L9.73726 71.3701L10.7277 71.5077C10.9115 70.1853 11.1099 68.8644 11.3242 67.5519L10.3373 67.3907ZM9.22569 75.3623L8.23257 75.2452C8.07368 76.5936 7.92895 77.9358 7.79711 79.2649L8.79223 79.3636L9.78734 79.4624C9.91804 78.1447 10.0615 76.8147 10.2188 75.4793L9.22569 75.3623ZM8.42884 83.371L7.43223 83.2889C7.31955 84.6555 7.21981 85.9998 7.13159 87.3134L8.12933 87.3805L9.12708 87.4475C9.21468 86.1433 9.31366 84.8091 9.42545 83.4532L8.42884 83.371ZM7.888 91.4052L6.8894 91.3524C6.81511 92.7564 6.75359 94.1104 6.70275 95.4025L7.70199 95.4418L8.70121 95.4812C8.75171 94.1975 8.81282 92.8526 8.8866 91.458L7.888 91.4052ZM7.57012 99.4723L6.57046 99.4462C6.53195 100.922 6.50744 102.272 6.4924 103.471L7.49232 103.484L8.49225 103.496C8.50718 102.305 8.53152 100.964 8.56978 99.4984L7.57012 99.4723ZM7.47254 107.532L6.47255 107.535C6.47481 108.169 6.4795 108.662 6.48362 108.998C6.48568 109.165 6.48761 109.293 6.48903 109.38C6.48973 109.423 6.49031 109.456 6.49071 109.478C6.49092 109.489 6.49108 109.498 6.49119 109.503C6.49124 109.506 6.49129 109.509 6.49132 109.51C6.49133 109.511 6.49134 109.511 6.49135 109.512C6.49136 109.512 6.49136 109.512 6.49137 109.512C6.49137 109.512 6.49136 109.512 6.49137 109.512C6.49137 109.513 6.49137 109.513 6.49137 109.513C6.49136 109.513 6.49137 109.513 7.49116 109.492C8.49095 109.472 8.49096 109.472 8.49097 109.472C8.49097 109.472 8.49096 109.472 8.49096 109.472C8.49096 109.472 8.49096 109.472 8.49096 109.472C8.49096 109.472 8.49096 109.472 8.49095 109.472C8.49095 109.472 8.49095 109.471 8.49093 109.471C8.49091 109.469 8.49087 109.468 8.49082 109.465C8.49072 109.46 8.49057 109.452 8.49038 109.442C8.49 109.421 8.48944 109.389 8.48876 109.347C8.48738 109.263 8.48549 109.138 8.48347 108.973C8.47941 108.643 8.47478 108.156 8.47253 107.528L7.47254 107.532Z" fill="#5B784A"/>
</svg>
