<svg width="46" height="46" viewBox="0 0 46 46" fill="none" xmlns="http://www.w3.org/2000/svg">
<path d="M32.292 42.5503H4.3769C4.21159 42.5503 4.05305 42.4846 3.93616 42.3677C3.81927 42.2508 3.7536 42.0923 3.7536 41.927V9.761C3.7536 9.67914 3.76972 9.59809 3.80105 9.52247C3.83237 9.44685 3.87828 9.37813 3.93616 9.32026C3.99404 9.26238 4.06275 9.21646 4.13837 9.18514C4.214 9.15382 4.29505 9.1377 4.3769 9.1377H11.9536C12.1189 9.1377 12.2774 9.20336 12.3943 9.32026C12.5112 9.43715 12.5769 9.59569 12.5769 9.761C12.5769 9.9263 12.5112 10.0848 12.3943 10.2017C12.2774 10.3186 12.1189 10.3843 11.9536 10.3843H5.00066V41.3032H31.6659V37.7488C31.6637 37.6655 31.6781 37.5826 31.7085 37.5049C31.7388 37.4273 31.7843 37.3565 31.8425 37.2968C31.9006 37.2371 31.9701 37.1896 32.0469 37.1572C32.1236 37.1248 32.2061 37.1081 32.2895 37.1081C32.3728 37.1081 32.4553 37.1248 32.5321 37.1572C32.6089 37.1896 32.6784 37.2371 32.7365 37.2968C32.7946 37.3565 32.8402 37.4273 32.8705 37.5049C32.9008 37.5826 32.9153 37.6655 32.913 37.7488V41.927C32.913 42.0919 32.8477 42.2501 32.7313 42.3669C32.6149 42.4837 32.4569 42.5496 32.292 42.5503Z" fill="white"/>
<path d="M32.292 16.5695C32.2101 16.5695 32.129 16.5534 32.0533 16.5221C31.9777 16.4908 31.9089 16.4449 31.851 16.3871C31.793 16.3292 31.7471 16.2604 31.7157 16.1848C31.6844 16.1091 31.6682 16.028 31.6682 15.9462V10.3843H24.7135C24.5482 10.3843 24.3897 10.3186 24.2728 10.2017C24.1559 10.0848 24.0902 9.9263 24.0902 9.761C24.0902 9.59569 24.1559 9.43715 24.2728 9.32026C24.3897 9.20336 24.5482 9.1377 24.7135 9.1377H32.292C32.4573 9.1377 32.6159 9.20336 32.7327 9.32026C32.8496 9.43715 32.9153 9.59569 32.9153 9.761V15.9462C32.9153 16.1115 32.8496 16.27 32.7327 16.3869C32.6159 16.5038 32.4573 16.5695 32.292 16.5695Z" fill="white"/>
<path d="M24.7135 12.7767H11.9535C11.7881 12.7767 11.6294 12.711 11.5125 12.594C11.3955 12.477 11.3298 12.3184 11.3298 12.1529V7.36894C11.3298 7.28704 11.3459 7.20596 11.3773 7.1303C11.4086 7.05465 11.4546 6.98592 11.5125 6.92803C11.5704 6.87015 11.6392 6.82425 11.7149 6.79295C11.7905 6.76165 11.8716 6.74557 11.9535 6.74564H13.5925C13.8926 5.79078 14.4893 4.95647 15.2959 4.36385C16.1025 3.77124 17.0771 3.45119 18.078 3.4502H18.59C19.5907 3.45123 20.565 3.77119 21.3715 4.36362C22.178 4.95605 22.7747 5.79011 23.075 6.74471H24.7139C24.7958 6.74465 24.8769 6.76073 24.9526 6.79203C25.0283 6.82333 25.097 6.86923 25.155 6.92711C25.2129 6.985 25.2588 7.05373 25.2902 7.12938C25.3216 7.20503 25.3377 7.28612 25.3377 7.36802V12.152C25.3378 12.234 25.3218 12.3153 25.2904 12.3911C25.2591 12.4669 25.2131 12.5358 25.1552 12.5938C25.0972 12.6519 25.0283 12.6979 24.9525 12.7293C24.8767 12.7606 24.7955 12.7768 24.7135 12.7767ZM12.5768 11.5296H24.0902V7.99132H22.5901C22.4451 7.99134 22.3047 7.94082 22.1929 7.84847C22.0812 7.75612 22.0051 7.6277 21.9779 7.48532C21.8237 6.69978 21.4015 5.99216 20.7835 5.48332C20.1655 4.97447 19.39 4.69598 18.5895 4.69542H18.078C17.2774 4.69598 16.502 4.97447 15.884 5.48332C15.266 5.99216 14.8438 6.69978 14.6896 7.48532C14.6623 7.6277 14.5863 7.75612 14.4745 7.84847C14.3628 7.94082 14.2223 7.99134 14.0774 7.99132H12.5768V11.5296Z" fill="white"/>
<path d="M16.4349 19.5087H8.18064C8.01529 19.5087 7.85671 19.4431 7.73974 19.3262C7.62278 19.2093 7.55701 19.0508 7.55688 18.8854V15.4294C7.55688 15.264 7.6226 15.1053 7.73958 14.9884C7.85656 14.8714 8.01521 14.8057 8.18064 14.8057H16.4349C16.5168 14.8057 16.5979 14.8218 16.6735 14.8532C16.7492 14.8845 16.8179 14.9305 16.8758 14.9884C16.9337 15.0463 16.9796 15.1151 17.0109 15.1908C17.0422 15.2664 17.0582 15.3475 17.0582 15.4294V18.8854C17.0582 19.0507 16.9925 19.2093 16.8756 19.3261C16.7587 19.443 16.6002 19.5087 16.4349 19.5087ZM8.80394 18.2616H15.8116V16.0536H8.80394V18.2616Z" fill="white"/>
<path d="M13.8423 26.0971H8.18061C8.0153 26.0971 7.85676 26.0314 7.73987 25.9145C7.62298 25.7977 7.55731 25.6391 7.55731 25.4738V22.0178C7.55731 21.8525 7.62298 21.694 7.73987 21.5771C7.85676 21.4602 8.0153 21.3945 8.18061 21.3945H14.737C14.8994 21.3989 15.0537 21.4666 15.1671 21.583C15.2804 21.6995 15.3438 21.8556 15.3438 22.0181C15.3438 22.1806 15.2804 22.3366 15.1671 22.4531C15.0537 22.5696 14.8994 22.6372 14.737 22.6416H8.80299V24.8496H13.8423C14.0047 24.854 14.159 24.9216 14.2724 25.0381C14.3857 25.1545 14.4491 25.3106 14.4491 25.4731C14.4491 25.6356 14.3857 25.7917 14.2724 25.9082C14.159 26.0246 14.0047 26.0922 13.8423 26.0967V26.0971Z" fill="white"/>
<path d="M14.9063 32.685H8.18061C8.09878 32.6851 8.01774 32.669 7.94212 32.6377C7.8665 32.6065 7.79779 32.5606 7.7399 32.5027C7.68202 32.4449 7.6361 32.3762 7.60477 32.3006C7.57344 32.225 7.55731 32.144 7.55731 32.0622V28.6057C7.55731 28.4404 7.62298 28.2819 7.73987 28.165C7.85676 28.0481 8.0153 27.9824 8.18061 27.9824H13.892C14.0544 27.9868 14.2087 28.0545 14.322 28.1709C14.4354 28.2874 14.4988 28.4435 14.4988 28.606C14.4988 28.7684 14.4354 28.9245 14.322 29.041C14.2087 29.1574 14.0544 29.2251 13.892 29.2295H8.80391V31.4375H14.9063C15.0716 31.4375 15.2301 31.5032 15.347 31.62C15.4639 31.7369 15.5296 31.8955 15.5296 32.0608C15.5296 32.2261 15.4639 32.3846 15.347 32.5015C15.2301 32.6184 15.0716 32.6841 14.9063 32.6841V32.685Z" fill="white"/>
<path d="M16.4349 39.2734H8.18064C8.01521 39.2734 7.85656 39.2076 7.73958 39.0907C7.6226 38.9737 7.55688 38.815 7.55688 38.6496V35.1941C7.55688 35.0286 7.6226 34.87 7.73958 34.753C7.85656 34.636 8.01521 34.5703 8.18064 34.5703H16.4349C16.5168 34.5703 16.5979 34.5864 16.6735 34.6178C16.7492 34.6492 16.8179 34.6951 16.8758 34.753C16.9337 34.811 16.9796 34.8797 17.0109 34.9554C17.0422 35.0311 17.0582 35.1122 17.0582 35.1941V38.6496C17.0582 38.7315 17.0422 38.8126 17.0109 38.8883C16.9796 38.9639 16.9337 39.0327 16.8758 39.0906C16.8179 39.1486 16.7492 39.1945 16.6735 39.2259C16.5979 39.2572 16.5168 39.2734 16.4349 39.2734ZM8.80394 38.0263H15.8116V35.8183H8.80394V38.0263Z" fill="white"/>
<path d="M28.4864 25.3209C28.4046 25.3211 28.3235 25.305 28.2478 25.2738C28.1722 25.2425 28.1035 25.1967 28.0456 25.1388C27.9877 25.081 27.9417 25.0122 27.9104 24.9366C27.8791 24.861 27.863 24.7799 27.8631 24.6981C27.8634 24.5749 27.9002 24.4545 27.9688 24.3522C28.0375 24.2499 28.1349 24.1702 28.2488 24.1232C28.3627 24.0763 28.488 24.0641 28.6088 24.0883C28.7297 24.1125 28.8406 24.172 28.9276 24.2592C29.0147 24.3464 29.0739 24.4575 29.0978 24.5784C29.1218 24.6992 29.1093 24.8245 29.0621 24.9383C29.0149 25.0521 28.935 25.1494 28.8325 25.2178C28.7301 25.2863 28.6096 25.3228 28.4864 25.3228V25.3209Z" fill="white"/>
<path d="M26.2347 30.5854C25.4955 30.5854 24.7729 30.3662 24.1583 29.9555C23.5436 29.5448 23.0646 28.9611 22.7817 28.2781C22.4988 27.5952 22.4248 26.8437 22.569 26.1187C22.7132 25.3937 23.0692 24.7277 23.5919 24.205C24.1146 23.6823 24.7805 23.3264 25.5055 23.1822C26.2305 23.038 26.982 23.112 27.665 23.3949C28.3479 23.6777 28.9316 24.1568 29.3423 24.7714C29.753 25.386 29.9722 26.1086 29.9722 26.8479C29.9711 27.8388 29.577 28.7888 28.8763 29.4895C28.1756 30.1901 27.2256 30.5843 26.2347 30.5854ZM26.2347 24.357C25.742 24.3569 25.2604 24.5029 24.8507 24.7765C24.441 25.0502 24.1217 25.4392 23.9331 25.8943C23.7445 26.3495 23.6951 26.8503 23.7911 27.3335C23.8872 27.8167 24.1244 28.2606 24.4727 28.609C24.8211 28.9574 25.2649 29.1947 25.7481 29.2909C26.2313 29.387 26.7322 29.3377 27.1874 29.1492C27.6425 28.9607 28.0316 28.6414 28.3053 28.2318C28.579 27.8221 28.7251 27.3405 28.7251 26.8479C28.7244 26.1875 28.4618 25.5545 27.9949 25.0875C27.528 24.6205 26.895 24.3578 26.2347 24.357Z" fill="white"/>
<path d="M26.2347 33.6056C22.5087 33.6056 19.4769 30.5737 19.4769 26.8477C19.4769 23.1217 22.5083 20.0898 26.2347 20.0898C29.9612 20.0898 32.9926 23.1212 32.9926 26.8477C32.9926 30.5742 29.9607 33.6056 26.2347 33.6056ZM26.2347 21.3369C25.1448 21.3369 24.0793 21.6601 23.1731 22.2656C22.2668 22.8712 21.5605 23.7318 21.1434 24.7388C20.7263 25.7458 20.6172 26.8538 20.8298 27.9228C21.0425 28.9918 21.5673 29.9737 22.338 30.7444C23.1087 31.5151 24.0906 32.04 25.1596 32.2526C26.2286 32.4652 27.3367 32.3561 28.3436 31.939C29.3506 31.5219 30.2113 30.8156 30.8168 29.9093C31.4223 29.0031 31.7455 27.9376 31.7455 26.8477C31.7439 25.3866 31.1628 23.9859 30.1297 22.9527C29.0966 21.9196 27.6958 21.3385 26.2347 21.3369Z" fill="white"/>
<path d="M26.2347 36.804C23.931 36.8046 21.6983 36.0064 19.9171 34.5454C18.1359 33.0843 16.9164 31.0508 16.4665 28.7914C16.0166 26.532 16.3641 24.1865 17.4497 22.1546C18.5353 20.1227 20.2919 18.53 22.4202 17.6481C24.5485 16.7662 26.9167 16.6496 29.1214 17.3181C31.326 17.9866 33.2306 19.3989 34.5106 21.3143C35.7907 23.2297 36.3669 25.5297 36.1412 27.8224C35.9155 30.1151 34.9017 32.2586 33.2727 33.8876C32.3507 34.8148 31.2539 35.55 30.0458 36.0506C28.8378 36.5512 27.5424 36.8073 26.2347 36.804ZM26.2347 18.1376C21.4323 18.1376 17.526 22.0449 17.526 26.8473C17.526 31.6497 21.4323 35.5578 26.2347 35.5578C31.0371 35.5578 34.9444 31.6478 34.9444 26.8473C34.9444 22.0467 31.0371 18.1376 26.2347 18.1376Z" fill="white"/>
<path d="M26.2347 39.9383C23.2063 39.9381 20.2716 38.8878 17.9306 36.9665C15.5897 35.0451 13.9874 32.3715 13.3967 29.4013C12.806 26.431 13.2635 23.3477 14.6912 20.6769C16.1189 18.0061 18.4285 15.913 21.2264 14.7541C24.0244 13.5953 27.1376 13.4424 30.0356 14.3215C32.9337 15.2007 35.4372 17.0575 37.1197 19.5756C38.8022 22.0937 39.5595 25.1173 39.2627 28.1311C38.9658 31.145 37.6332 33.9627 35.4918 36.1042C34.2789 37.3236 32.8363 38.2903 31.2473 38.9485C29.6583 39.6066 27.9546 39.943 26.2347 39.9383ZM26.2347 15.0026C19.7027 15.0026 14.3902 20.316 14.3902 26.8471C14.3902 33.3782 19.7036 38.6917 26.2347 38.6917C32.7658 38.6917 38.0793 33.3782 38.0793 26.8471C38.0793 20.316 32.7658 15.0026 26.2347 15.0026Z" fill="white"/>
<path d="M38.151 16.0372C37.9857 16.037 37.8271 15.9713 37.7102 15.8543C37.5934 15.7373 37.5277 15.5788 37.5277 15.4134V11.9418C37.5321 11.7793 37.5998 11.625 37.7162 11.5117C37.8327 11.3984 37.9887 11.335 38.1512 11.335C38.3137 11.335 38.4698 11.3984 38.5863 11.5117C38.7027 11.625 38.7704 11.7793 38.7748 11.9418V15.4134C38.7748 15.5788 38.7091 15.7375 38.5921 15.8545C38.4751 15.9714 38.3164 16.0372 38.151 16.0372Z" fill="white"/>
<path d="M41.6231 16.0371H38.151C37.9886 16.0327 37.8343 15.9651 37.7209 15.8486C37.6076 15.7322 37.5442 15.5761 37.5442 15.4136C37.5442 15.2511 37.6076 15.095 37.7209 14.9785C37.8343 14.8621 37.9886 14.7945 38.151 14.79H41.6231C41.7855 14.7945 41.9398 14.8621 42.0532 14.9785C42.1665 15.095 42.2299 15.2511 42.2299 15.4136C42.2299 15.5761 42.1665 15.7322 42.0532 15.8486C41.9398 15.9651 41.7855 16.0327 41.6231 16.0371Z" fill="white"/>
<path d="M26.2347 27.4703C26.1104 27.4699 25.989 27.4324 25.8861 27.3625C25.7833 27.2926 25.7037 27.1935 25.6576 27.078C25.6115 26.9625 25.601 26.8359 25.6274 26.7144C25.6539 26.5929 25.7161 26.482 25.806 26.3962L39.6014 13.2259C39.7219 13.1167 39.8803 13.059 40.0428 13.0649C40.2053 13.0708 40.3591 13.1399 40.4714 13.2575C40.5836 13.3751 40.6455 13.5319 40.6439 13.6945C40.6422 13.8571 40.5772 14.0127 40.4625 14.128L26.6671 27.2978C26.5509 27.4092 26.3958 27.4711 26.2347 27.4703Z" fill="white"/>
</svg>
