<svg width="14" height="14" viewBox="0 0 14 14" fill="none" xmlns="http://www.w3.org/2000/svg">
<path d="M7.20335 0.0815537C7.1491 0.0292129 7.07691 0 7.00182 0C6.92674 0 6.85455 0.0292129 6.80029 0.0815537L0.0911079 6.545C0.0626148 6.57249 0.0399466 6.60552 0.0244747 6.64209C0.00900274 6.67867 0.00104855 6.71803 0.00109325 6.75779L0 12.824C0 13.1359 0.122865 13.435 0.341566 13.6555C0.560268 13.8761 0.85689 14 1.16618 14H4.66837C4.82301 14 4.97132 13.938 5.08067 13.8278C5.19002 13.7175 5.25146 13.5679 5.25146 13.412V8.4138C5.25146 8.33583 5.28217 8.26105 5.33685 8.20591C5.39152 8.15077 5.46568 8.11979 5.543 8.11979H8.45846C8.53578 8.11979 8.60993 8.15077 8.66461 8.20591C8.71928 8.26105 8.75 8.33583 8.75 8.4138V13.412C8.75 13.5679 8.81143 13.7175 8.92078 13.8278C9.03013 13.938 9.17844 14 9.33309 14H12.8338C13.1431 14 13.4397 13.8761 13.6584 13.6555C13.8771 13.435 14 13.1359 14 12.824V6.75779C14 6.71803 13.9921 6.67867 13.9766 6.64209C13.9611 6.60552 13.9385 6.57249 13.91 6.545L7.20335 0.0815537Z" fill="white" fill-opacity="0.22"/>
</svg>
