<svg width="109" height="78" viewBox="0 0 109 78" fill="none" xmlns="http://www.w3.org/2000/svg">
<path d="M30.6251 69.8647V60.3174H34.3232C36.248 60.3174 37.3537 61.2304 37.3537 62.6229C37.3537 63.6999 36.6305 64.3962 35.9073 64.7102C36.9184 65.0785 37.7362 65.7609 37.7362 67.0561C37.7362 68.8015 36.2077 69.866 34.3913 69.866H30.6251V69.8647ZM32.0993 64.1641H34.2286C35.294 64.1641 35.9212 63.7819 35.9212 62.8828C35.9212 61.9836 35.2926 61.614 34.2286 61.614H32.0993V64.1641ZM32.0993 68.5556H34.2564C35.4984 68.5556 36.2633 68.0372 36.2633 67.0019C36.2633 65.9665 35.4998 65.4607 34.2564 65.4607H32.0993V68.5569V68.5556Z" fill="white"/>
<path d="M41.0824 69.8647V66.0457L37.942 60.3174H39.5525L41.5177 64.0279C41.6262 64.2461 41.7222 64.4504 41.8181 64.6963C41.9141 64.4518 42.0087 64.2475 42.1185 64.0279L44.0823 60.3174H45.6929L42.5539 66.0457V69.8647H41.0796H41.0824Z" fill="white"/>
<path d="M50.5968 69.8647V60.3174H52.0974L56.3977 66.9185C56.3977 66.9185 56.726 67.4646 56.8066 67.6689V60.3174H58.2405V69.8647H56.726L52.4256 63.2358C52.4256 63.2358 52.0974 62.6896 52.0168 62.4853V69.8647H50.5968Z" fill="white"/>
<path d="M60.3837 69.8647V60.3174H61.858V64.3267H66.3613V60.3174H67.8355V69.8647H66.3613V65.665H61.858V69.8647H60.3837Z" fill="white"/>
<path d="M69.4071 65.0924C69.4071 62.1879 71.5642 60.127 74.2387 60.127C76.1775 60.127 77.6781 61.1498 78.3346 62.5965L77.1608 63.4428C76.4765 62.092 75.5488 61.4777 74.1984 61.4777C72.3973 61.4777 70.9092 62.9369 70.9092 65.0924C70.9092 67.2478 72.3153 68.707 74.1984 68.707C75.5349 68.707 76.5321 68.0524 77.2289 66.7294L78.3749 67.5341C77.3235 69.1837 76.2317 70.0578 74.172 70.0578C71.4279 70.0578 69.4071 67.9996 69.4071 65.0951" fill="white"/>
<path d="M6.28635 54.1865V44.3252H7.90661L11.2487 52.6231L14.6032 44.3252H16.2249V54.1865H14.7451V47.3686C14.6185 47.8606 14.4058 48.4957 14.2653 48.8334L12.0094 54.1865H10.5004L8.24457 48.8334C8.1041 48.5096 7.8927 47.862 7.75223 47.3686V54.1865H6.28635Z" fill="white"/>
<path d="M17.1984 54.1865L21.1747 44.3252H22.6698L26.6461 54.1865H25.0244L23.9535 51.4544H19.8924L18.8201 54.1865H17.1998H17.1984ZM20.3986 50.1008H23.4445L22.2317 46.9879C22.19 46.8614 22.0481 46.4667 21.9216 46.0721C21.795 46.4667 21.6545 46.8614 21.6114 46.9879L20.4 50.1008H20.3986Z" fill="white"/>
<path d="M27.6168 54.1865V44.3252H29.1383V48.4665L29.9839 47.5368L33.0284 44.3252H34.9463L31.479 47.9746L35.2008 54.1865H33.4247L30.3789 49.1155L29.1383 50.4107V54.1865H27.6168Z" fill="white"/>
<path d="M36.2856 54.1865V44.3252H37.8085V48.4665L38.6541 47.5368L41.6999 44.3252H43.6178L40.1478 47.9746L43.8695 54.1865H42.0949L39.0491 49.1155L37.8085 50.4107V54.1865H36.2856Z" fill="white"/>
<path d="M44.519 54.1865L48.4953 44.3252H49.9904L53.9666 54.1865H52.345L51.2741 51.4544H47.213L46.1421 54.1865H44.5204H44.519ZM47.7192 50.1008H50.765L49.5523 46.9879C49.5106 46.8614 49.3687 46.4667 49.2421 46.0721C49.1156 46.4667 48.9751 46.8614 48.932 46.9879L47.7206 50.1008H47.7192Z" fill="white"/>
<path d="M54.9374 54.1865V44.3252H56.4589V48.4665H61.1111V44.3252H62.634V54.1865H61.1111V49.8465H56.4589V54.1865H54.9374Z" fill="white"/>
<path d="M68.3293 49.2559C68.3293 46.2986 70.599 44.1279 73.3208 44.1279C75.2387 44.1279 76.7755 45.0715 77.5349 46.5363L76.393 47.3673C75.7171 46.086 74.6462 45.4662 73.3055 45.4662C71.4585 45.4662 69.88 46.974 69.88 49.2559C69.88 51.5378 71.261 52.9887 73.1789 52.9887C74.955 52.9887 75.9132 51.7769 76.0843 50.3399H72.77V49.0878H77.6058V54.1866H76.6044L76.2234 52.651C75.6323 53.6794 74.6295 54.384 73.1358 54.384C70.3862 54.384 68.3279 52.2146 68.3279 49.2559" fill="white"/>
<path d="M78.5641 54.1865L82.5403 44.3252H84.0354L88.0117 54.1865H86.39L85.3191 51.4544H81.258L80.1857 54.1865H78.5654H78.5641ZM81.7643 50.1008H84.8101L83.5973 46.9879C83.5556 46.8614 83.4137 46.4667 83.2872 46.0721C83.1606 46.4667 83.0201 46.8614 82.977 46.9879L81.7656 50.1008H81.7643Z" fill="white"/>
<path d="M90.3078 54.1865V45.7205H87.2759V44.3252H94.8599V45.7205H91.8294V54.1865H90.3078Z" fill="white"/>
<path d="M96.2006 54.1865V44.3252H102.671V45.6774H97.7221V48.4109H102.276V49.7631H97.7221V52.8344H102.714V54.1865H96.2006Z" fill="white"/>
<path d="M6.52 10.7261L8.31967 12.5508L10.6242 10.2481L8.31967 7.94531L6.52 9.74359L4.6939 7.94531L2.38937 10.2481L4.6939 12.5508L6.52 10.7261Z" fill="white"/>
<path d="M38.4232 17.4966C35.6403 17.4966 33.7571 18.985 32.1842 22.4106L31.5945 23.7031C30.3581 26.4269 29.7113 27.0453 28.7002 27.0453C28.7002 27.0453 28.6975 27.0453 28.6961 27.0453V27.0425C27.8811 27.0425 27.5153 26.7896 25.3512 24.4591L19.3639 18.0553L26.1106 12.6341L23.9744 10.2188L16.5823 16.2014V19.8536L22.5975 26.2573C22.0078 26.8202 21.2498 27.0439 20.1525 27.0439H15.2625H14.7006C12.8745 27.0439 12.1151 26.1184 12.1151 24.8815V13.6749H8.74248V16.175C3.42829 17.4952 0 20.0509 0 23.5891C0 26.6506 2.47282 28.1668 5.87468 28.1682C6.97201 28.1682 8.03874 28 9.10686 27.6623C9.80921 29.3758 11.6353 30.1332 14.6992 30.1332H20.1525C22.0912 30.1332 23.6378 29.5148 24.6211 28.335C26.0258 29.6274 27.0661 30.1332 28.6961 30.1332H28.8365C30.6348 30.1068 31.9561 29.3758 33.1647 27.7179C34.5986 29.3189 36.3398 30.1332 38.4204 30.1332C41.8209 30.1332 44.1546 27.7735 44.1546 24.2923C44.1546 20.3608 41.8765 17.4966 38.4204 17.4966H38.4232ZM8.74108 24.4313C7.78561 24.8801 6.91498 25.0775 5.87468 25.0775C4.27249 25.0775 3.37265 24.4021 3.37265 23.4196C3.37265 21.7908 5.42406 20.3302 8.74108 19.4033V24.4313ZM38.4232 27.0439C37.0463 27.0439 35.8378 26.5395 34.657 25.0497C34.657 25.0219 34.6848 25.0219 34.6848 24.9927L35.2745 23.7003C36.3982 21.2558 37.2411 20.5818 38.4218 20.5818C39.8279 20.5818 40.7834 21.8186 40.7834 24.2895C40.7834 26.0586 39.9406 27.0411 38.4218 27.0411L38.4232 27.0439Z" fill="white"/>
<path d="M58.6313 10.7261L60.431 12.5508L62.7355 10.2481L60.431 7.94531L58.6313 9.74359L56.8052 7.94531L54.5007 10.2481L56.8052 12.5508L58.6313 10.7261Z" fill="white"/>
<path d="M70.8591 34.0097L73.1636 36.2832L75.4682 34.0097L73.1636 31.6777L70.8591 34.0097Z" fill="white"/>
<path d="M72.6852 17.4957V27.0457H69.8661H66.8105C64.9844 27.0457 64.2251 26.1202 64.2251 24.8833V13.6768H60.8524V16.1768C55.541 17.4971 52.1113 20.0527 52.1113 23.5909C52.1113 26.6524 54.5841 28.1686 57.9846 28.17C59.0819 28.17 60.1487 28.0018 61.2168 27.6641C61.9205 29.3776 63.7466 30.135 66.8105 30.135H76.0579V17.4971H72.6852V17.4957ZM60.8524 24.4317C59.8969 24.8806 59.0263 25.0779 57.986 25.0779C56.3838 25.0779 55.484 24.4025 55.484 23.42C55.484 21.7912 57.5354 20.3307 60.8524 19.4037V24.4317Z" fill="white"/>
<path d="M83.3372 10.4736H79.9646V30.1296H83.3372V10.4736Z" fill="white"/>
<path d="M103.8 34.0092L106.104 36.2842L108.409 34.0092L106.104 31.6787L103.8 34.0092Z" fill="white"/>
<path d="M105.626 17.4936V27.0422H98.768V26.8741C98.768 20.947 96.6039 17.4936 92.4997 17.4936C89.0993 17.4936 86.5972 20.2452 86.5972 23.6722C86.5972 27.6607 89.6319 30.1316 94.4677 30.1316H94.7764C93.9893 31.8159 92.4983 32.7428 90.4761 32.7428C89.4358 32.7428 88.4525 32.5191 87.301 32.0688L86.1202 34.9052C87.5249 35.5236 89.0714 35.8321 90.4761 35.8321C94.4399 35.8321 97.2771 33.6697 98.3174 30.1302H108.999V17.4922H105.626V17.4936ZM95.3967 27.0422H94.4691C91.4344 27.0422 89.9727 25.8916 89.9727 23.6736C89.9727 21.9601 91.0408 20.5843 92.5025 20.5843C94.3578 20.5843 95.3967 22.7467 95.3967 26.8755V27.0436V27.0422Z" fill="white"/>
</svg>
