<svg width="112" height="80" viewBox="0 0 112 80" fill="none" xmlns="http://www.w3.org/2000/svg">
<g clip-path="url(#clip0_108_795)">
<path d="M56.7181 15.9864C56.7181 14.3672 56.721 12.748 56.721 11.1288C58.0085 10.2152 59.2976 9.30153 60.5866 8.38789C61.8942 7.46142 63.2018 6.53495 64.5094 5.61133C64.3021 7.33741 64.0978 9.06207 63.8849 10.7867C63.6376 12.7879 63.3804 14.7905 63.1289 16.7931C63.0589 17.3476 62.996 17.9049 62.9302 18.4608C62.7802 18.475 62.603 18.4408 62.4844 18.5092C60.7581 19.4956 59.0375 20.4947 57.3197 21.4953C57.194 21.568 57.0897 21.6763 56.9753 21.769C57.1082 22.7182 57.2326 23.6675 57.3726 24.6139C57.7556 27.2038 58.1472 29.7922 58.5344 32.3806C58.8974 34.808 59.2633 37.2353 59.6262 39.6613C59.7906 40.7602 59.9578 41.8577 60.1136 42.9566C60.1278 43.0493 60.0807 43.1918 60.0107 43.2474C58.9817 44.077 57.9442 44.8965 56.7981 45.7033V16.8516L56.6624 16.8473C56.5852 17.4559 56.5037 18.0659 56.4294 18.676C56.1036 21.2986 55.7792 23.9198 55.4577 26.5424C55.119 29.3033 54.786 32.0656 54.4445 34.8279C54.1272 37.4035 53.8028 39.9777 53.4827 42.5533C53.407 43.1676 53.3369 43.7805 53.2583 44.3948C53.2483 44.4775 53.2126 44.5844 53.1512 44.6314C52.3995 45.2044 51.6392 45.7688 50.8204 46.3803C50.8204 45.7931 50.8161 45.2728 50.8204 44.7526C50.8318 43.6294 50.8518 42.5077 50.8575 41.3845C50.8718 38.7619 50.8775 36.1421 50.889 33.5209C50.9032 30.6545 50.9204 27.7868 50.9404 24.9204C50.9518 23.3411 50.969 21.7618 50.9833 20.184C52.8339 18.8656 54.6845 17.5457 56.5323 16.223C56.6095 16.1688 56.6552 16.0662 56.7152 15.9878" fill="white"/>
<path d="M64.5094 5.61013C63.2018 6.5366 61.8942 7.46165 60.5866 8.38669C59.2976 9.30034 58.01 10.214 56.721 11.1276C54.9761 9.88472 53.2298 8.64468 51.4849 7.40321C50.646 6.80599 49.8086 6.20592 48.9197 5.57307C51.5335 3.70588 54.1229 1.85722 56.721 0C58.4687 1.24575 60.2079 2.48722 61.9471 3.72869C62.7273 4.28599 63.5047 4.84473 64.2836 5.40488C64.365 5.46332 64.4322 5.54029 64.5065 5.61013" fill="white"/>
<path d="M68.5107 21.7725C68.1663 24.1114 67.8262 26.4518 67.4747 28.7894C67.0388 31.6914 66.5901 34.592 66.1528 37.4939C65.917 39.0604 65.6898 40.6283 65.4583 42.1947C65.4497 42.2945 65.4397 42.3943 65.4325 42.494C65.3182 43.2181 65.2082 43.9436 65.0824 44.6663C65.061 44.7903 65.0038 44.957 64.9066 45.014C64.2178 45.4288 63.5133 45.8194 62.7473 46.2541V25.0849C63.6148 24.5818 64.4808 24.0744 65.3511 23.5741C66.4014 22.9697 67.4561 22.3725 68.5093 21.7725" fill="white"/>
<path d="M60.7523 45.2077C59.3076 45.7565 57.8742 46.3366 56.4151 46.8454C54.2587 47.5994 52.0236 48.0327 49.7514 48.2408C47.4363 48.4518 45.1213 48.4561 42.8419 47.9045C41.8258 47.6593 40.8541 47.3044 40.0166 46.6487C38.9434 45.8092 38.5919 44.6504 38.6319 43.3633C38.6805 41.7641 39.5079 40.4927 40.4982 39.3139C40.927 38.8051 41.3943 38.3276 41.843 37.8344C41.8901 37.7817 41.9259 37.719 41.9087 37.6035C41.7958 37.6905 41.6786 37.7703 41.5715 37.8629C40.1467 39.0902 38.8162 40.4043 37.843 42.0306C37.28 42.9714 36.9113 43.9805 36.847 45.088C36.7527 46.74 37.4715 47.9657 38.8077 48.8765C40.2353 49.8515 41.8287 50.3518 43.5321 50.5798C45.4971 50.8407 47.4578 50.7494 49.4156 50.5542C53.7671 50.1166 57.9171 48.9122 61.927 47.1975C65.1181 45.8334 68.0692 44.0703 70.7286 41.8468C72.2006 40.6153 73.461 39.1956 74.3327 37.4596C74.9973 36.1383 75.1902 34.7529 74.9115 33.319C74.8272 32.8857 74.9958 32.7046 75.3217 32.4951C75.556 33.1807 75.6418 33.8634 75.6075 34.5619C75.506 36.6571 74.4685 38.3233 73.1395 39.8427C71.3574 41.8795 69.1981 43.4645 66.9159 44.8884C62.713 47.5111 58.1772 49.3255 53.3312 50.3532C50.6574 50.9205 47.9579 51.2882 45.2199 51.2013C43.1206 51.1357 41.047 50.8706 39.1478 49.8757C37.7444 49.1402 36.7327 48.0755 36.454 46.4606C36.2325 45.1707 36.5383 43.9648 37.1085 42.8103C37.9631 41.0842 39.2207 39.676 40.6269 38.3903C42.5432 36.6372 44.684 35.1947 46.9462 33.9276C47.0148 33.8891 47.0905 33.862 47.162 33.8292C47.2734 34.0858 47.162 34.2169 46.9647 34.3523C45.3442 35.4612 43.8294 36.6942 42.6175 38.2549C41.9702 39.0887 41.4357 39.9838 41.2714 41.0557C41.0913 42.2245 41.5157 43.1381 42.4318 43.8408C43.3364 44.535 44.3981 44.8813 45.5057 45.0096C46.6889 45.1464 47.8851 45.1464 49.074 45.2362C49.2941 45.2519 49.5042 45.4044 49.7186 45.4928L49.6885 45.6367C48.7939 45.6367 47.9008 45.6667 47.0076 45.6282C45.8244 45.5797 44.6511 45.4073 43.5536 44.944C43.0005 44.7117 42.4432 44.4252 41.983 44.0489C40.7898 43.074 40.5568 41.6187 41.2528 40.0109C41.7329 38.8992 42.4818 37.977 43.2963 37.1018C43.4078 36.9821 43.5178 36.8624 43.6279 36.7398C43.6393 36.7255 43.6322 36.697 43.635 36.6471C43.5893 36.6557 43.5393 36.65 43.5136 36.6728C41.9216 38.0026 40.4639 39.4493 39.5808 41.3622C38.9091 42.8188 38.922 44.2727 39.8895 45.5997C40.5654 46.5247 41.5958 46.958 42.6633 47.2716C44.6282 47.846 46.6403 47.9472 48.6739 47.866C51.9107 47.7363 55.0332 47.0649 58.06 45.9304C58.7902 45.6567 59.5062 45.3445 60.235 45.0695C60.3779 45.0153 60.5551 45.0481 60.7166 45.0395C60.7281 45.0965 60.7381 45.1536 60.7495 45.212" fill="white"/>
<path d="M56.7181 15.9865C56.6581 16.0663 56.6124 16.1675 56.5352 16.2216C54.6888 17.5458 52.8368 18.8628 50.9861 20.1827C49.3842 19.0452 47.7807 17.9078 46.1802 16.7704C45.8558 16.5395 45.5357 16.3086 45.1827 16.0549C47.1234 14.6638 49.0383 13.2912 50.9761 11.9043C52.8896 13.2655 54.8032 14.6267 56.7181 15.9865Z" fill="white"/>
<path d="M68.5107 21.7719C67.4575 22.372 66.4029 22.9692 65.3525 23.5735C64.4822 24.0738 63.6162 24.5813 62.7488 25.0844C60.9381 24.0382 59.1275 22.9906 57.3155 21.9458C57.204 21.8802 57.0897 21.8247 56.9768 21.7648C57.0911 21.6721 57.1954 21.5638 57.3212 21.4911C59.0403 20.4905 60.7595 19.4914 62.4858 18.505C62.6044 18.4381 62.7816 18.4708 62.9317 18.458C64.4879 19.3659 66.0442 20.271 67.599 21.1833C67.9105 21.3657 68.2063 21.5738 68.5107 21.7705" fill="white"/>
<path d="M65.434 42.4967C65.4425 42.3969 65.4525 42.2971 65.4611 42.1973C67.8791 40.6822 70.0513 38.9219 71.2517 36.2352C71.6918 35.2517 71.7704 34.2055 71.5732 33.1536C71.5032 32.7816 71.749 32.6661 71.9676 32.458C72.2706 33.4016 72.2635 34.3238 72.0277 35.2531C71.6361 36.8067 70.7186 38.0482 69.6283 39.1728C68.3778 40.4627 66.9531 41.5388 65.434 42.4952" fill="white"/>
<path d="M25.313 79.0078C25.1787 79.0078 25.0629 79.0563 24.9629 79.1532C24.8628 79.2501 24.8143 79.3656 24.8143 79.5024C24.8143 79.6392 24.8643 79.7575 24.9629 79.8559C25.0615 79.9528 25.1787 80.0013 25.313 80.0013C25.4473 80.0013 25.5674 79.9528 25.6617 79.8545C25.756 79.7561 25.8046 79.6392 25.8046 79.5024C25.8046 79.3656 25.7574 79.2458 25.6617 79.1503C25.5659 79.0548 25.4502 79.0078 25.313 79.0078Z" fill="white"/>
<path d="M23.9983 79.0078C23.8625 79.0078 23.7453 79.0563 23.6453 79.1546C23.5453 79.253 23.4952 79.3684 23.4952 79.5024C23.4952 79.6364 23.5438 79.7575 23.6453 79.8545C23.7468 79.9514 23.8625 80.0013 23.9983 80.0013C24.134 80.0013 24.2498 79.9528 24.3455 79.8559C24.4398 79.7604 24.487 79.6421 24.487 79.5024C24.487 79.3627 24.4384 79.2501 24.3455 79.1532C24.2512 79.0563 24.1355 79.0078 23.9983 79.0078Z" fill="white"/>
<path d="M27.2565 75.6557L26.7406 75.1013C26.6949 75.0642 26.6506 75.0257 26.6063 74.9872C26.4906 74.9017 26.3748 74.8319 26.2576 74.7791C26.0876 74.705 25.9189 74.668 25.7517 74.668C25.5988 74.668 25.4531 74.6979 25.3116 74.7563C25.1487 74.8233 24.9929 74.9302 24.8457 75.0756C24.6814 75.2395 24.5627 75.4077 24.4856 75.5845C24.4213 75.7298 24.3913 75.8824 24.3913 76.0434C24.3913 76.2572 24.4513 76.4682 24.5713 76.6777C24.6099 76.7447 24.6699 76.8259 24.7471 76.9214L25.4002 77.5614H23.1323C23.1323 77.5614 23.1237 77.5643 23.1137 77.5643H23.0765C22.9651 77.5643 22.8722 77.5415 22.7964 77.4958C22.6764 77.4246 22.6164 77.3034 22.6164 77.131C22.6164 76.9713 22.6764 76.8573 22.7964 76.7889C22.8679 76.7475 22.9608 76.7276 23.0737 76.7276C23.088 76.7276 23.108 76.7276 23.1323 76.7304C23.2337 76.7162 23.3066 76.6948 23.3538 76.6692C23.4995 76.5908 23.5724 76.4582 23.5724 76.2715C23.5724 76.0762 23.4981 75.9394 23.3509 75.861C23.3023 75.8353 23.2294 75.8154 23.1323 75.8025H23.0179C22.9193 75.8025 22.8021 75.8182 22.6621 75.851C22.3891 75.9137 22.1705 76.022 22.0062 76.176C21.7718 76.3926 21.6532 76.6891 21.6532 77.064C21.6532 77.4916 21.7718 77.8294 22.0076 78.0774C22.1776 78.2556 22.3963 78.3796 22.6635 78.448C22.7893 78.4808 22.9079 78.4964 23.0165 78.4964H26.5949C26.6778 78.4936 26.7421 78.4879 26.7878 78.4765C26.925 78.4437 27.0193 78.3767 27.0722 78.2741C27.0865 78.2527 27.0936 78.2299 27.0979 78.2042C27.1022 78.1786 27.105 78.1529 27.105 78.1244C27.105 78.056 27.085 77.9776 27.0436 77.8935C27.0307 77.8679 27.0122 77.8337 26.985 77.7923L25.4688 76.3C25.4416 76.2701 25.4216 76.2444 25.4102 76.223C25.373 76.1575 25.3559 76.0919 25.3559 76.0249C25.3559 75.9764 25.3644 75.9308 25.383 75.8866C25.4016 75.8424 25.433 75.7968 25.4788 75.7526C25.5245 75.7085 25.5688 75.6771 25.6131 75.66C25.656 75.6429 25.7017 75.6344 25.7503 75.6344C25.8232 75.6344 25.9003 75.6557 25.9775 75.6999C26.0018 75.7127 26.0333 75.7355 26.0718 75.7655L26.5677 76.2572C26.5992 76.2829 26.6277 76.3028 26.6492 76.3157C26.7192 76.3541 26.7907 76.3741 26.865 76.3741C26.915 76.3741 26.965 76.3656 27.015 76.347C27.065 76.3285 27.1179 76.2971 27.1722 76.2515C27.238 76.1974 27.2865 76.1418 27.3151 76.0833C27.3437 76.0249 27.358 75.9679 27.358 75.9123C27.358 75.8467 27.3423 75.784 27.3094 75.7241C27.298 75.7042 27.2823 75.6814 27.2608 75.6529L27.2565 75.6557Z" fill="white"/>
<path d="M28.8814 75.6875C28.6742 75.6875 28.5298 75.7773 28.4469 75.9583C28.4212 76.0182 28.4012 76.1066 28.3883 76.2249V78.7548C28.3883 78.7805 28.3855 78.8047 28.3812 78.8289C28.3769 78.8532 28.3669 78.8731 28.3555 78.8902C28.3355 78.9102 28.3112 78.9244 28.2812 78.933C28.2726 78.9358 28.2597 78.9373 28.2426 78.9401C28.1583 78.9544 28.0954 78.9743 28.0568 78.9986C27.9339 79.0741 27.8739 79.2081 27.8739 79.4019C27.8739 79.5958 27.9596 79.7355 28.1311 79.8124C28.1869 79.8367 28.2726 79.8552 28.3883 79.8666H28.6842C28.7585 79.858 28.8171 79.8481 28.8599 79.8367C28.9943 79.7996 29.1029 79.7355 29.1843 79.6442C29.2658 79.553 29.3215 79.429 29.353 79.2722C29.3615 79.2209 29.3673 79.1511 29.373 79.0641V76.2249C29.3587 76.1037 29.3372 76.0139 29.3115 75.9555C29.2286 75.7773 29.0857 75.6889 28.8814 75.6889V75.6875Z" fill="white"/>
<path d="M32.6412 74.3573C32.7827 74.3573 32.9013 74.3089 32.9985 74.212C33.0957 74.1165 33.1443 73.9996 33.1443 73.8628C33.1443 73.7259 33.0957 73.6062 32.9971 73.5107C32.8985 73.4166 32.7813 73.3682 32.6412 73.3682C32.5012 73.3682 32.3897 73.4166 32.2925 73.515C32.1954 73.6133 32.1454 73.7288 32.1454 73.8628C32.1454 73.9967 32.1939 74.115 32.2911 74.212C32.3869 74.3089 32.5041 74.3573 32.6412 74.3573Z" fill="white"/>
<path d="M33.8731 74.3573C34.0103 74.3573 34.1275 74.3089 34.2275 74.212C34.3275 74.115 34.3761 73.9996 34.3761 73.8628C34.3761 73.7259 34.3261 73.6105 34.2275 73.5136C34.1289 73.4166 34.0117 73.3682 33.8731 73.3682C33.7345 73.3682 33.6216 73.4166 33.5244 73.515C33.4272 73.6133 33.3772 73.7288 33.3772 73.8628C33.3772 73.9967 33.4258 74.115 33.523 74.212C33.6187 74.3089 33.7359 74.3573 33.8731 74.3573Z" fill="white"/>
<path d="M39.3678 73.5791C39.2878 73.4223 39.1449 73.3454 38.9377 73.3454C38.7305 73.3454 38.5861 73.4238 38.5033 73.5834C38.4775 73.6347 38.4575 73.7131 38.4447 73.8172V77.3933C38.4447 77.4518 38.4332 77.4931 38.4118 77.5173C38.3904 77.5416 38.3489 77.5572 38.2875 77.5658H38.0102H36.4869C36.3997 77.5059 36.3354 77.4532 36.2939 77.409C36.1682 77.2793 36.1053 77.1467 36.1053 77.0113V76.9586C36.1053 76.8289 36.1296 76.722 36.1767 76.6393C36.2553 76.5039 36.3968 76.4369 36.6012 76.4369C36.7341 76.4369 36.8398 76.484 36.9213 76.578C36.947 76.6094 36.9742 76.655 37.0027 76.7191L37.0742 76.8916C37.0928 76.95 37.1099 76.9928 37.1271 77.0213C37.1828 77.1054 37.2685 77.1482 37.3814 77.1482C37.4157 77.1482 37.4558 77.1453 37.5015 77.1353C37.5472 77.1254 37.5929 77.1125 37.6387 77.0926C37.7273 77.0555 37.7944 76.9928 37.8373 76.9044C37.8745 76.8275 37.893 76.7391 37.893 76.6379C37.893 76.5025 37.8659 76.387 37.8116 76.293C37.7873 76.2474 37.7601 76.2032 37.7273 76.159C37.723 76.1519 37.7173 76.1447 37.7073 76.1333C37.6673 76.0834 37.6301 76.0336 37.5929 75.9837C37.4886 75.8668 37.3743 75.7741 37.25 75.7043C37.0742 75.6045 36.8841 75.5546 36.6826 75.5546C36.5997 75.5546 36.5169 75.5632 36.434 75.5774C36.1296 75.6373 35.8781 75.7542 35.6766 75.9323C35.5322 76.0606 35.4208 76.2117 35.3436 76.3885C35.3193 76.4626 35.295 76.5353 35.2721 76.6094C35.2636 76.6593 35.2579 76.702 35.2564 76.7362C35.2479 76.8346 35.2436 76.9372 35.2436 77.0455C35.2436 77.1396 35.2664 77.2551 35.3122 77.3933C35.325 77.4361 35.3465 77.4945 35.3779 77.5658H34.9835V77.5629H34.5147C34.5433 77.5088 34.5633 77.4617 34.5762 77.4218C34.6148 77.3035 34.6348 77.1795 34.6348 77.047C34.6348 76.9971 34.6319 76.9458 34.6248 76.8945C34.6091 76.759 34.5619 76.6151 34.4833 76.4583C34.459 76.4098 34.4233 76.3457 34.3761 76.2702C34.3161 76.1932 34.2632 76.1348 34.2189 76.0906C34.086 75.958 33.956 75.8639 33.8274 75.8112C33.7302 75.7684 33.6316 75.7385 33.5315 75.7228C33.4301 75.7086 33.3343 75.7 33.24 75.7C33.2157 75.7 33.1857 75.7 33.1528 75.7029C33.12 75.7057 33.0928 75.7071 33.0757 75.71C32.9856 75.73 32.9128 75.7471 32.857 75.7627C32.687 75.814 32.5469 75.8839 32.434 75.9708C32.3211 76.0578 32.2154 76.1761 32.1153 76.3286C32.0825 76.3785 32.0439 76.4469 31.9967 76.531C31.9724 76.5937 31.9553 76.6465 31.9481 76.6878C31.9167 76.8118 31.9024 76.9287 31.9024 77.0398C31.9024 77.1425 31.9196 77.2608 31.951 77.399C31.9596 77.4418 31.9753 77.4974 31.9967 77.5644H31.5523H31.0836C31.0578 77.5644 31.0293 77.5644 30.9992 77.5615C30.9692 77.5587 30.9421 77.5473 30.9192 77.5259C30.8964 77.5045 30.8835 77.4803 30.8806 77.4518C30.8778 77.4233 30.8763 77.3962 30.8763 77.3677V73.9312C30.8763 73.7559 30.8449 73.6148 30.782 73.5107C30.7049 73.381 30.5805 73.3154 30.4133 73.3154C30.2461 73.3154 30.1118 73.371 30.0189 73.485C29.9346 73.5862 29.8917 73.7231 29.8917 73.8913V77.553C29.8889 77.5615 29.8889 77.5715 29.8889 77.5829V77.6257C29.8889 77.7468 29.9003 77.8594 29.9246 77.9635C29.9617 78.1231 30.0232 78.2443 30.1104 78.3241C30.1875 78.3982 30.2976 78.4495 30.4433 78.4809C30.5362 78.5008 30.642 78.5108 30.7635 78.5108C30.7877 78.5079 30.8063 78.5079 30.822 78.5079H31.5309H34.9835H38.0102H38.3589C38.7048 78.5079 38.9648 78.4395 39.1392 78.3027C39.3321 78.1502 39.4307 77.9093 39.4307 77.5772V73.8186C39.415 73.7117 39.3936 73.6333 39.3678 73.5805V73.5791ZM33.693 77.0569C33.6887 77.1054 33.6845 77.1467 33.6773 77.1767C33.6559 77.2707 33.6144 77.3449 33.553 77.3976C33.5158 77.4332 33.473 77.4603 33.4215 77.4803C33.3701 77.5002 33.31 77.5116 33.24 77.5116C33.0657 77.5116 32.9428 77.4389 32.8685 77.2936C32.8442 77.2451 32.8256 77.1753 32.8099 77.0783C32.8184 77.0299 32.827 76.9942 32.8356 76.9671C32.8613 76.8831 32.8985 76.8146 32.9471 76.7648C32.9899 76.7263 33.0371 76.6963 33.0828 76.6764C33.1286 76.6564 33.1871 76.6464 33.2572 76.6464C33.4272 76.6464 33.5516 76.7134 33.6287 76.8503C33.6544 76.893 33.6773 76.9615 33.6945 77.0527L33.693 77.0569Z" fill="white"/>
<path d="M41.1056 73.66C41.0241 73.4903 40.8841 73.4062 40.684 73.4062C40.4725 73.4062 40.3239 73.4903 40.2396 73.66C40.2138 73.7155 40.1924 73.8011 40.1781 73.9137V79.3342C40.1924 79.4369 40.2138 79.511 40.2396 79.5594C40.3225 79.7062 40.4682 79.7804 40.6769 79.7804C40.8855 79.7804 41.027 79.692 41.107 79.511C41.1327 79.4511 41.1527 79.3613 41.1656 79.2402V73.9122C41.1513 73.7996 41.1313 73.7141 41.1056 73.6585V73.66Z" fill="white"/>
<path d="M47.0848 79.0488C46.9719 79.0488 46.8761 79.0887 46.7975 79.1686C46.7189 79.2484 46.6789 79.3467 46.6789 79.4636C46.6789 79.5805 46.7189 79.6731 46.7975 79.7544C46.8761 79.8356 46.9719 79.8769 47.0819 79.8769C47.2005 79.8769 47.2991 79.8356 47.3806 79.7544C47.4621 79.6731 47.5035 79.5762 47.5035 79.4636C47.5035 79.351 47.4621 79.2484 47.3792 79.1686C47.2963 79.0887 47.1977 79.0488 47.0834 79.0488H47.0848Z" fill="white"/>
<path d="M46.3574 79.1714C46.2759 79.0902 46.1788 79.0488 46.0659 79.0488C45.953 79.0488 45.8501 79.0887 45.77 79.1686C45.69 79.2484 45.65 79.3467 45.65 79.4636C45.65 79.5805 45.6914 79.6731 45.7729 79.7544C45.8544 79.8356 45.953 79.8769 46.0687 79.8769C46.1845 79.8769 46.2788 79.8356 46.3603 79.7544C46.4417 79.6731 46.4832 79.5762 46.4832 79.4636C46.4832 79.3496 46.4417 79.2512 46.3603 79.17L46.3574 79.1714Z" fill="white"/>
<path d="M46.7332 78.5092C46.8033 78.5021 46.8576 78.495 46.8976 78.4864C47.0162 78.4565 47.1162 78.4009 47.1991 78.3211C47.282 78.2413 47.3377 78.1386 47.3706 78.0146C47.382 77.9719 47.3892 77.9191 47.3935 77.8507V76.2515C47.3792 76.1446 47.3592 76.0662 47.3349 76.0134C47.2577 75.8552 47.1191 75.7754 46.9233 75.7754C46.7275 75.7754 46.5903 75.8538 46.5117 76.0134C46.486 76.0662 46.466 76.1446 46.4531 76.2515V77.3547C46.4503 77.3832 46.4489 77.4032 46.446 77.416C46.4374 77.4573 46.4203 77.4915 46.3974 77.5158C46.3731 77.54 46.3474 77.5542 46.3202 77.5585C46.2931 77.5628 46.2659 77.5656 46.2388 77.5656H44.9726V76.2244C44.9583 76.1033 44.9369 76.0135 44.9112 75.955C44.8283 75.7768 44.6868 75.6885 44.4839 75.6885C44.281 75.6885 44.1323 75.7783 44.0495 75.9593C44.0237 76.0191 44.0023 76.1075 43.988 76.2258C43.988 76.3242 43.988 76.4539 43.9909 76.6192C43.9937 76.7831 43.9937 76.9898 43.9951 77.2392C43.9966 77.4887 43.9951 77.7481 43.9951 78.0175C43.9951 78.2869 43.9951 78.5007 43.9923 78.6461C43.9894 78.7914 43.9866 78.867 43.9794 78.8727C43.9551 78.8969 43.9194 78.9154 43.8723 78.9283C43.8637 78.9311 43.8522 78.9325 43.8408 78.9354C43.7565 78.9496 43.6936 78.9696 43.655 78.9938C43.5321 79.0694 43.4721 79.2048 43.4721 79.4001C43.4721 79.6338 43.5907 79.782 43.828 79.8462C43.868 79.8576 43.9208 79.8647 43.988 79.869L44.2881 79.8619C44.3624 79.8533 44.421 79.8433 44.4639 79.8319C44.5939 79.7949 44.7011 79.7307 44.784 79.6395C44.8669 79.5483 44.9226 79.4243 44.9541 79.2646C44.9626 79.2133 44.9683 79.1421 44.9741 79.0537V78.5064H45.57V78.5092H46.7332Z" fill="white"/>
<path d="M58.5202 75.5448C58.6573 75.5448 58.776 75.4964 58.8731 75.398C58.9703 75.2997 59.0203 75.1842 59.0203 75.0503C59.0203 74.9163 58.9717 74.7937 58.8731 74.6982C58.7745 74.6041 58.6573 74.5557 58.5202 74.5557C58.383 74.5557 58.2672 74.6041 58.17 74.7011C58.0729 74.798 58.0243 74.9148 58.0243 75.0503C58.0243 75.1857 58.0729 75.3025 58.17 75.3995C58.2658 75.4964 58.383 75.5448 58.5202 75.5448Z" fill="white"/>
<path d="M58.5202 74.3192C58.6588 74.3192 58.776 74.2707 58.8746 74.1738C58.9717 74.0769 59.0203 73.9614 59.0203 73.826C59.0203 73.6906 58.9717 73.5709 58.8746 73.4725C58.7774 73.3742 58.6602 73.3271 58.5202 73.3271C58.3801 73.3271 58.2672 73.3756 58.17 73.4725C58.0729 73.5695 58.0243 73.6863 58.0243 73.826C58.0243 73.9657 58.0729 74.0755 58.17 74.1738C58.2658 74.2707 58.383 74.3192 58.5202 74.3192Z" fill="white"/>
<path d="M60.891 73.5804C60.8109 73.4236 60.6666 73.3467 60.4608 73.3467C60.255 73.3467 60.1093 73.4251 60.0264 73.5847C60.0007 73.636 59.9807 73.7144 59.9678 73.8185V77.3946C59.9678 77.4531 59.9578 77.4944 59.9364 77.5186C59.9149 77.5429 59.8735 77.5586 59.812 77.5671H58.9975V76.2529C58.9846 76.146 58.966 76.0676 58.9389 76.0149C58.8574 75.8567 58.7188 75.7769 58.5216 75.7769C58.3244 75.7769 58.1958 75.8553 58.1172 76.0149C58.0914 76.0676 58.07 76.146 58.0557 76.2529V77.3561C58.0528 77.3818 58.0514 77.4032 58.0486 77.4174C58.04 77.4616 58.0228 77.4958 58 77.5186C57.9785 77.5429 57.9528 77.5557 57.9228 77.5614C57.8928 77.5657 57.8656 77.5685 57.8399 77.5685H57.1568V77.5728H56.5838C56.5938 77.5429 56.6023 77.5186 56.6066 77.4987C56.6352 77.3804 56.6495 77.2493 56.6495 77.111C56.6495 76.9984 56.6366 76.8772 56.6109 76.7475C56.5852 76.6178 56.5423 76.4952 56.4852 76.3769C56.428 76.2586 56.3451 76.1517 56.2394 76.0562C56.1508 75.9764 56.0507 75.9109 55.9393 75.861C55.8006 75.7911 55.6863 75.7512 55.5963 75.7384C55.5063 75.7256 55.3633 75.7199 55.1661 75.7199H52.7553V73.7771C52.7553 73.636 52.7153 73.5291 52.6367 73.4564C52.5581 73.3837 52.4395 73.3467 52.2823 73.3467C52.0522 73.3467 51.9079 73.435 51.8521 73.6104C51.8364 73.6574 51.8264 73.713 51.8193 73.7757L51.8264 75.7199V77.5714H51.2619V77.5643H50.8146C50.8689 77.4402 50.8961 77.302 50.8961 77.1481C50.8961 76.7775 50.7603 76.4596 50.4888 76.1931C50.2173 75.9265 49.8943 75.794 49.5199 75.794C49.2055 75.794 48.924 75.8909 48.6739 76.0847C48.4238 76.2786 48.2623 76.5209 48.1866 76.8117C48.1552 76.93 48.1409 77.044 48.1409 77.1595C48.1409 77.2949 48.1623 77.4331 48.2066 77.5757C48.2795 77.8165 48.4052 78.0189 48.5796 78.1843C48.7539 78.3496 48.9926 78.4594 49.2927 78.5135H49.3055L49.0898 78.8813L48.9826 79.0737L48.9397 79.145L48.9068 79.2205C48.8983 79.2519 48.8926 79.2818 48.8883 79.316C48.884 79.3502 48.884 79.3987 48.884 79.4614C48.884 79.5612 48.944 79.6453 49.064 79.7151C49.1541 79.7664 49.2327 79.7921 49.3027 79.7921C49.327 79.7921 49.3513 79.7892 49.3741 79.7821C49.4227 79.7693 49.4656 79.755 49.4985 79.7393C49.5299 79.7251 49.5628 79.7051 49.5956 79.6809C49.6414 79.6438 49.6871 79.5911 49.7328 79.5212L49.7486 79.4913L49.7686 79.4614L50.0172 79.0181L50.3045 78.5036H51.2291V78.5064H57.1883H58.3444C58.4115 78.4993 58.4658 78.4921 58.5044 78.4836C58.6259 78.4522 58.7259 78.4009 58.8045 78.324C58.866 78.2612 58.9131 78.1885 58.946 78.1059C58.966 78.0574 58.9832 77.9947 58.9946 77.9206V78.5064H59.8878C60.2336 78.5064 60.4937 78.438 60.668 78.3012C60.861 78.1486 60.9596 77.9078 60.9596 77.5757L60.9567 73.817C60.9424 73.7101 60.921 73.6317 60.8953 73.579L60.891 73.5804ZM49.8072 77.4716C49.7171 77.5586 49.6114 77.6013 49.4928 77.6013C49.3656 77.6013 49.2584 77.5586 49.1712 77.4702C49.084 77.3818 49.0397 77.2778 49.0397 77.1595C49.0397 77.0326 49.084 76.9286 49.1741 76.8459C49.2612 76.7575 49.367 76.7119 49.4942 76.7119C49.6214 76.7119 49.7271 76.7547 49.8143 76.843C49.9015 76.9314 49.9443 77.0355 49.9443 77.1566C49.9443 77.2778 49.9 77.3832 49.8086 77.4702L49.8072 77.4716ZM55.6749 77.091C55.6749 77.2835 55.6063 77.4217 55.4662 77.5015C55.4205 77.5272 55.3519 77.5486 55.2576 77.5628H52.7553V76.6549H55.249C55.3476 76.6677 55.4191 76.6862 55.4648 76.709C55.6063 76.7803 55.6763 76.9072 55.6763 77.0896L55.6749 77.091Z" fill="white"/>
<path d="M62.2086 73.4087C61.9971 73.4087 61.8484 73.4927 61.7641 73.6624C61.7384 73.7179 61.717 73.8035 61.7027 73.9161V79.3366C61.717 79.4393 61.7384 79.5134 61.7641 79.5618C61.847 79.7086 61.9928 79.7828 62.2014 79.7828C62.4101 79.7828 62.5515 79.6944 62.6316 79.5134C62.6573 79.4535 62.6773 79.3637 62.6902 79.2426V73.9146C62.6759 73.802 62.6559 73.7165 62.6301 73.6609C62.5487 73.4913 62.4086 73.4072 62.2086 73.4072V73.4087Z" fill="white"/>
<path d="M65.7355 76.2121C65.464 75.947 65.141 75.8145 64.7652 75.8145C64.4436 75.8145 64.1578 75.9114 63.912 76.1052C63.6662 76.2991 63.5062 76.5399 63.4318 76.8293C63.4004 76.9476 63.3861 77.0616 63.3861 77.1771C63.3861 77.3182 63.4061 77.4536 63.4461 77.5833C63.4862 77.713 63.5362 77.827 63.5962 77.9254C63.6562 78.0237 63.7319 78.1149 63.8234 78.2019C63.9978 78.3658 64.235 78.4741 64.5351 78.5311L64.5508 78.534L64.335 78.8989L64.2278 79.0913C64.2135 79.1098 64.1993 79.1341 64.185 79.1626L64.1535 79.2367C64.1392 79.2794 64.1307 79.3222 64.1292 79.3635C64.1292 79.4049 64.1292 79.4434 64.1292 79.4776C64.1292 79.5716 64.1892 79.6572 64.3107 79.7313C64.3979 79.7854 64.4765 79.8125 64.5494 79.8125C64.5708 79.8125 64.5937 79.8097 64.618 79.8025C64.7023 79.7783 64.7766 79.7441 64.8395 79.6985C64.8595 79.6842 64.8709 79.6771 64.8766 79.6728C64.8823 79.6686 64.8981 79.6472 64.9266 79.6115L64.9724 79.546L65.1067 79.308L65.2639 79.0414L65.9684 77.7857C66.0185 77.6945 66.0613 77.599 66.0942 77.4978C66.1271 77.3966 66.1442 77.2883 66.1442 77.1671C66.1442 76.7937 66.0084 76.4772 65.7369 76.2121H65.7355ZM65.1867 77.1728C65.1867 77.2982 65.1439 77.4037 65.0581 77.4878C64.9724 77.5719 64.8652 77.6147 64.7394 77.6147C64.6137 77.6147 64.5022 77.5719 64.4179 77.4864C64.3336 77.4009 64.2893 77.2954 64.2893 77.1728C64.2893 77.0502 64.3322 76.9462 64.4193 76.8592C64.5065 76.7723 64.6123 76.7295 64.7394 76.7295C64.8666 76.7295 64.9681 76.7723 65.0553 76.8606C65.1424 76.949 65.1853 77.0531 65.1853 77.1714L65.1867 77.1728Z" fill="white"/>
<path d="M69.0466 75.6875C68.8409 75.6875 68.6951 75.7773 68.6122 75.9583C68.5865 76.0182 68.5665 76.1066 68.5536 76.2249V78.7548C68.5536 78.7805 68.5508 78.8047 68.5465 78.8289C68.5422 78.8532 68.5322 78.8731 68.5207 78.8902C68.5007 78.9102 68.4764 78.9244 68.445 78.933C68.4364 78.9358 68.4236 78.9373 68.4064 78.9401C68.3221 78.9544 68.2592 78.9743 68.2206 78.9986C68.0977 79.0741 68.0377 79.2081 68.0377 79.4019C68.0377 79.5958 68.1235 79.7355 68.2949 79.8124C68.3507 79.8367 68.4364 79.8552 68.5522 79.8666H68.8494C68.9237 79.858 68.9823 79.8481 69.0252 79.8367C69.161 79.7996 69.2696 79.7355 69.351 79.6442C69.4325 79.553 69.4882 79.429 69.5197 79.2722C69.5282 79.2209 69.5339 79.1511 69.5397 79.0641V76.2249C69.5254 76.1037 69.5039 76.0139 69.4782 75.9555C69.3953 75.7773 69.251 75.6889 69.0481 75.6889L69.0466 75.6875Z" fill="white"/>
<path d="M76.3906 74.252C76.5106 74.252 76.6121 74.2107 76.6936 74.128C76.775 74.0453 76.8179 73.947 76.8179 73.8287C76.8179 73.7146 76.775 73.6149 76.6907 73.5322C76.6064 73.4495 76.5063 73.4082 76.3906 73.4082C76.2748 73.4082 76.1748 73.4495 76.0948 73.5322C76.0147 73.6149 75.9747 73.7132 75.9747 73.8287C75.9747 73.9441 76.0148 74.0453 76.0991 74.128C76.182 74.2107 76.2806 74.252 76.3935 74.252H76.3906Z" fill="white"/>
<path d="M75.9219 75.1611C76.0419 75.1611 76.1434 75.1212 76.2248 75.0385C76.3063 74.9559 76.3477 74.8561 76.3477 74.7364C76.3477 74.6209 76.3063 74.5211 76.2234 74.4385C76.1405 74.3558 76.0419 74.3145 75.9233 74.3145C75.8047 74.3145 75.7075 74.3558 75.6232 74.4385C75.5389 74.5211 75.496 74.6209 75.496 74.7378C75.496 74.8547 75.5389 74.9544 75.6232 75.0371C75.7075 75.1198 75.8075 75.1611 75.9233 75.1611H75.9219Z" fill="white"/>
<path d="M76.5449 74.7378C76.5449 74.8547 76.5864 74.9544 76.6693 75.0371C76.7521 75.1198 76.8507 75.1611 76.9694 75.1611C77.088 75.1611 77.1909 75.1198 77.2723 75.0371C77.3538 74.9544 77.3967 74.8547 77.3967 74.7378C77.3967 74.6209 77.3552 74.5211 77.2723 74.4385C77.1894 74.3558 77.088 74.3145 76.9694 74.3145C76.8507 74.3145 76.7521 74.3558 76.6693 74.4385C76.5864 74.5211 76.5449 74.6209 76.5449 74.7378Z" fill="white"/>
<path d="M78.8629 75.5448C79.0001 75.5448 79.1187 75.4964 79.2159 75.398C79.313 75.2997 79.363 75.1842 79.363 75.0503C79.363 74.9163 79.3145 74.7937 79.2159 74.6982C79.1172 74.6027 79.0001 74.5557 78.8629 74.5557C78.7257 74.5557 78.6099 74.6041 78.5128 74.7011C78.4156 74.7965 78.367 74.9148 78.367 75.0503C78.367 75.1857 78.4156 75.3025 78.5128 75.3995C78.6085 75.4964 78.7257 75.5448 78.8629 75.5448Z" fill="white"/>
<path d="M78.8629 74.3202C79.0015 74.3202 79.1187 74.2717 79.2173 74.1748C79.3145 74.0779 79.363 73.9624 79.363 73.827C79.363 73.6916 79.3145 73.5719 79.2173 73.4735C79.1215 73.3766 79.0015 73.3281 78.8629 73.3281C78.7243 73.3281 78.6099 73.3766 78.5128 73.4735C78.4156 73.569 78.367 73.6873 78.367 73.827C78.367 73.9667 78.4156 74.0764 78.5128 74.1748C78.6085 74.2717 78.7257 74.3202 78.8629 74.3202Z" fill="white"/>
<path d="M85.1093 76.1044C85.0964 76.0104 85.0779 75.9391 85.0507 75.8935C84.9736 75.7524 84.8349 75.6825 84.6391 75.6825C84.4434 75.6825 84.3062 75.7524 84.2276 75.8935C84.2019 75.9391 84.1818 76.0089 84.169 76.1044V77.5754H83.3544V76.1044C83.3401 76.0104 83.3201 75.9391 83.2958 75.8935C83.2187 75.7524 83.0815 75.6825 82.8885 75.6825C82.6956 75.6825 82.5556 75.7524 82.477 75.8935C82.4513 75.9391 82.4312 76.0089 82.4184 76.1044V77.5754H81.6038V76.1044C81.591 76.0104 81.5724 75.9391 81.5452 75.8935C81.4681 75.7524 81.3294 75.6825 81.1337 75.6825C80.9379 75.6825 80.7964 75.7524 80.7192 75.8935C80.6935 75.9391 80.6735 76.0089 80.6606 76.1044V77.5668H79.3402V76.2513C79.3273 76.1443 79.3087 76.066 79.2816 76.0132C79.2001 75.855 79.0615 75.7752 78.8643 75.7752C78.6671 75.7752 78.537 75.8536 78.4585 76.0132C78.4327 76.066 78.4113 76.1443 78.397 76.2513V77.3559C78.3941 77.3815 78.3927 77.4029 78.3898 77.4172C78.3813 77.4614 78.3641 77.4956 78.3413 77.5184C78.3198 77.5426 78.2941 77.5554 78.2641 77.5611C78.2341 77.5654 78.2069 77.5683 78.1812 77.5683H76.9308V76.2527C76.9179 76.1458 76.8993 76.0674 76.8722 76.0146C76.7907 75.8564 76.6521 75.7766 76.4549 75.7766C76.2577 75.7766 76.1291 75.855 76.0505 76.0146C76.0247 76.0674 76.0033 76.1458 75.989 76.2527V77.3573C75.9862 77.383 75.9847 77.4043 75.9819 77.4186C75.9733 77.4642 75.9562 77.497 75.9333 77.5198C75.9119 77.544 75.8861 77.5569 75.8561 77.5626C75.8261 77.5668 75.799 77.5697 75.7732 77.5697H75.0916V77.5725H74.6929L74.6386 77.4329C74.6014 77.3359 74.5371 77.2305 74.4413 77.1179C74.3456 77.0053 74.2156 76.8998 74.0498 76.8043C73.884 76.7102 73.6725 76.6617 73.4153 76.6617C73.158 76.6617 72.958 76.7074 72.7922 76.8014C72.7108 76.8485 72.6393 76.8984 72.575 76.9525C72.5107 77.0067 72.4535 77.0608 72.4035 77.1164C72.3078 77.2347 72.2406 77.3402 72.2049 77.4314L72.1463 77.5711H71.7218V77.5683H71.2531C71.2274 77.5683 71.1988 77.5683 71.1688 77.5654C71.1374 77.5626 71.1116 77.5512 71.0888 77.5298C71.0659 77.5084 71.053 77.4842 71.0502 77.4557C71.0473 77.4272 71.0459 77.4001 71.0459 77.3716V73.9351C71.0459 73.7598 71.0145 73.6187 70.9516 73.5146C70.8744 73.3849 70.7501 73.3193 70.5829 73.3193C70.4157 73.3193 70.2813 73.3749 70.1885 73.489C70.1041 73.5902 70.0613 73.727 70.0613 73.8952V77.5569C70.0584 77.5654 70.0584 77.5754 70.0584 77.5868V77.6296C70.0584 77.7507 70.0698 77.8633 70.0941 77.9674C70.1313 78.127 70.1927 78.2482 70.2799 78.328C70.3571 78.4021 70.4671 78.4534 70.6129 78.4848C70.7058 78.5047 70.8115 78.5147 70.933 78.5147C70.9573 78.5118 70.9759 78.5118 70.9916 78.5118H71.7133V78.5147H72.1506L72.212 78.6558C72.2577 78.7513 72.3249 78.8525 72.4164 78.958C72.5078 79.0635 72.6307 79.1646 72.7894 79.2601C72.8665 79.3086 72.9508 79.3428 73.0452 79.3642C73.1395 79.3856 73.2438 79.397 73.3567 79.397C73.6439 79.397 73.8726 79.3514 74.0426 79.2601C74.127 79.2145 74.2056 79.1661 74.277 79.1133C74.3485 79.0606 74.4071 79.0093 74.4528 78.9565C74.5542 78.8482 74.6186 78.747 74.6514 78.6544L74.7057 78.5133H75.1359V78.5104H76.2763C76.3434 78.5033 76.3977 78.4962 76.4363 78.4876C76.5578 78.4562 76.6578 78.4049 76.7364 78.328C76.7979 78.2653 76.8436 78.1926 76.8779 78.1099C76.8979 78.0614 76.9151 77.9987 76.9265 77.9246V78.5118H77.5053H78.6857C78.7528 78.5047 78.8071 78.4976 78.8457 78.489C78.9672 78.4577 79.0672 78.4064 79.1458 78.3294C79.2059 78.2667 79.253 78.194 79.2859 78.1113C79.3059 78.0629 79.323 78.0001 79.3345 77.926V78.5133H79.9147H84.2119C84.3505 78.5133 84.4705 78.5004 84.5705 78.4748C84.6977 78.4434 84.8035 78.3864 84.8878 78.3052C84.9535 78.2453 85.0078 78.1641 85.0536 78.0643C85.0664 78.0329 85.085 77.9845 85.1079 77.9146L85.115 77.8434L85.1122 76.1016L85.1093 76.1116V76.1044ZM73.7397 78.3465C73.6511 78.4334 73.5453 78.4762 73.421 78.4762C73.2967 78.4762 73.1852 78.4334 73.098 78.3451C73.0109 78.2567 72.968 78.1527 72.968 78.0315C72.968 77.9104 73.0109 77.8106 73.098 77.7179C73.1909 77.631 73.2995 77.5882 73.421 77.5882C73.5453 77.5882 73.6525 77.6353 73.7397 77.7236C73.8269 77.812 73.8712 77.9161 73.8712 78.0315C73.8712 78.1555 73.8283 78.2596 73.7397 78.3465Z" fill="white"/>
<path d="M86.2368 78.1475C86.4926 78.1475 86.6555 78.0406 86.7256 77.8254C86.737 77.7912 86.7442 77.7427 86.7484 77.6786V73.8786C86.7342 73.7746 86.7127 73.6976 86.6841 73.6449C86.5998 73.4881 86.4512 73.4111 86.2383 73.4111C86.0025 73.4111 85.8538 73.518 85.791 73.7333C85.7795 73.7675 85.7724 73.8159 85.7681 73.8801V77.68C85.781 77.7841 85.7995 77.861 85.8267 77.9138C85.9039 78.0706 86.0425 78.1475 86.2383 78.1475H86.2368Z" fill="white"/>
<path d="M90.3454 73.8175C90.3311 73.7106 90.3097 73.6322 90.2839 73.5795C90.2039 73.4227 90.0596 73.3457 89.8538 73.3457C89.648 73.3457 89.5022 73.4241 89.4194 73.5837C89.3936 73.635 89.3736 73.7134 89.3608 73.8175V77.3937C89.3608 77.4521 89.3508 77.4934 89.3293 77.5177C89.3079 77.5419 89.2664 77.5576 89.205 77.5661H88.5276V73.8659C88.5105 73.7619 88.489 73.6849 88.4619 73.6322C88.3776 73.4754 88.229 73.3984 88.0217 73.3984C87.8145 73.3984 87.6802 73.4754 87.6002 73.6322C87.5744 73.6835 87.5544 73.7619 87.5416 73.8659V78.5097C87.5273 78.638 87.5101 78.7321 87.4887 78.7933C87.4201 78.9801 87.2986 79.0727 87.1271 79.0727C86.9799 79.0727 86.8771 79.0285 86.8127 78.9387C86.7713 78.8803 86.7513 78.8033 86.7513 78.7078C86.7513 78.6936 86.7513 78.6765 86.7542 78.6608C86.757 78.6451 86.757 78.6351 86.757 78.6294C86.7427 78.5339 86.7213 78.4641 86.6956 78.4185C86.6155 78.2802 86.4712 78.2104 86.2654 78.2104C86.0182 78.2104 85.8596 78.3073 85.7924 78.5012C85.781 78.5339 85.7738 78.5781 85.7695 78.6309V78.9031C85.7838 78.9972 85.801 79.0898 85.8153 79.1867C85.8781 79.3991 85.9939 79.573 86.1611 79.707C86.3912 79.8937 86.707 79.9864 87.1071 79.9864C87.5301 79.9864 87.8631 79.8809 88.1089 79.6714C88.2833 79.5245 88.4047 79.3293 88.4747 79.0884C88.4933 78.9829 88.5105 78.8789 88.5276 78.7748V78.5026H89.2779C89.6237 78.5026 89.8838 78.4342 90.0582 78.2973C90.2511 78.1448 90.3497 77.9039 90.3497 77.5718L90.3468 73.8132L90.3454 73.8175Z" fill="white"/>
<path d="M17.3331 62.5739C17.2302 62.2546 17.0344 61.9624 16.7458 61.6973C16.5286 61.4807 16.2685 61.3224 15.9655 61.2241C15.6625 61.1257 15.341 61.0602 15.0009 61.0288C14.8866 61.0174 14.7822 61.0117 14.6893 61.0117H14.052L13.2503 61.0645C12.7401 61.1115 12.2214 61.3167 11.6926 61.6802C11.1638 62.0437 10.7351 62.5155 10.4022 63.0956C10.275 63.325 10.1692 63.6272 10.082 64.0007C10.0263 64.2572 9.99916 64.5195 9.99916 64.7889C9.99916 64.8644 10.002 64.9414 10.0049 65.0226C10.0077 65.1039 10.0134 65.1751 10.022 65.2379C10.0649 65.6754 10.1921 66.1258 10.4022 66.5876C10.6122 67.0495 10.9438 67.4642 11.3996 67.8305C11.7255 68.0985 12.0642 68.2924 12.4214 68.4107C12.6158 68.4748 12.783 68.5218 12.9259 68.5532C13.0688 68.5845 13.2203 68.6131 13.3832 68.6359C13.4861 68.6387 13.5947 68.6444 13.709 68.6473C13.8233 68.6501 13.9505 68.653 14.0891 68.653L14.3678 68.623L14.5036 68.5874C14.5579 68.5717 14.6165 68.5503 14.6736 68.5261C14.7308 68.5005 14.7722 68.4819 14.7951 68.4705C14.9094 68.3993 15.0052 68.3166 15.0795 68.2211C15.1266 68.1612 15.1595 68.1028 15.1781 68.0429C15.1967 67.9831 15.2038 67.9047 15.2038 67.8063C15.2038 67.5939 15.1552 67.43 15.0552 67.3146C14.9552 67.2005 14.8537 67.1221 14.7465 67.0837C14.6393 67.0452 14.5393 67.0238 14.4435 67.0238H14.3064L13.9805 67.0295C13.7476 67.0295 13.4932 66.9939 13.2174 66.9226C12.943 66.8513 12.6644 66.7188 12.3857 66.5249C12.107 66.3311 11.9141 66.0574 11.8098 65.7011C11.7055 65.3448 11.6512 65.0369 11.6512 64.7718C11.6512 64.6421 11.664 64.5195 11.6869 64.4055C11.7269 64.2401 11.7755 64.089 11.8326 63.9522C11.8898 63.8154 11.9527 63.7028 12.0199 63.6115C12.1785 63.4106 12.3285 63.2695 12.4714 63.1911L12.7029 63.0728L12.6672 63.2609C12.6672 63.2766 12.6644 63.3037 12.6558 63.3436V63.4262C12.6558 63.4776 12.6558 63.5317 12.6586 63.5859C12.6615 63.64 12.6615 63.6985 12.6615 63.7569C12.6701 63.8595 12.6872 63.9707 12.7144 64.0876C12.7415 64.2059 12.7744 64.3242 12.8158 64.4425C12.8916 64.6919 13.0302 64.9442 13.2317 65.1994C13.3103 65.302 13.3975 65.3918 13.4932 65.4688C13.589 65.5457 13.6919 65.6113 13.8076 65.6669C14.0134 65.7781 14.2306 65.8607 14.4607 65.9163C14.5993 65.9562 14.7051 65.9833 14.7779 65.999C14.8508 66.0147 14.9209 66.0232 14.988 66.0232C15.0752 66.0346 15.1295 66.0432 15.1481 66.0432C15.1681 66.0432 15.1881 66.046 15.2067 66.046C15.4082 66.046 15.6168 66.0104 15.8326 65.9391C16.0484 65.8678 16.2685 65.7652 16.4943 65.6312C16.9244 65.3832 17.2345 64.9528 17.4203 64.3413L17.4746 64.0805C17.5017 63.955 17.516 63.7926 17.516 63.5944V63.4163C17.516 63.2823 17.5003 63.1469 17.4689 63.0115C17.4374 62.8761 17.3917 62.7264 17.3317 62.5639M15.6797 64.1261C15.5196 64.2843 15.3267 64.3641 15.1009 64.3641C14.8751 64.3641 14.6765 64.2843 14.5164 64.1247C14.3564 63.965 14.2763 63.774 14.2763 63.5531C14.2763 63.3322 14.3578 63.144 14.5207 62.9915C14.6736 62.829 14.8694 62.7478 15.1023 62.7478C15.3353 62.7478 15.5196 62.8276 15.6811 62.9872C15.8412 63.1469 15.9212 63.335 15.9212 63.5531C15.9212 63.7712 15.8412 63.9693 15.6811 64.1275" fill="white"/>
<path d="M19.4338 65.4179C19.9011 65.4179 20.197 65.2226 20.3241 64.832C20.3441 64.7679 20.357 64.6795 20.3656 64.5655V57.6526C20.3384 57.463 20.2998 57.3205 20.247 57.225C20.0926 56.9414 19.8211 56.7988 19.4338 56.7988C19.0065 56.7988 18.735 56.9941 18.6207 57.3846C18.6007 57.4488 18.5878 57.5372 18.5793 57.6512V64.5641C18.6021 64.7536 18.6393 64.8948 18.6864 64.9917C18.8279 65.2753 19.078 65.4179 19.4338 65.4179Z" fill="white"/>
<path d="M37.4886 64.3746V57.5372C37.4615 57.3448 37.4229 57.2008 37.3757 57.1053C37.23 56.8217 36.9684 56.6777 36.5926 56.6777C36.2168 56.6777 35.9538 56.8217 35.8038 57.111C35.7566 57.2065 35.7209 57.3491 35.6966 57.5372V64.0425C35.6966 64.1494 35.6766 64.2235 35.6366 64.2677C35.598 64.3104 35.5222 64.3389 35.4108 64.356H33.8559V61.6921C33.8331 61.5182 33.7959 61.3899 33.7488 61.3072C33.6059 61.0521 33.3543 60.9224 32.9957 60.9224C32.637 60.9224 32.3897 61.0507 32.2483 61.3072C32.2011 61.3899 32.1654 61.5182 32.1411 61.6921V64.3731H30.6634V61.6921C30.6391 61.5182 30.6034 61.3899 30.5562 61.3072C30.4148 61.0521 30.1647 60.9224 29.8088 60.9224C29.453 60.9224 29.2043 61.0507 29.0614 61.3072C29.0186 61.3899 28.9843 61.5182 28.96 61.6921V64.3731H27.4695V61.6921C27.4452 61.5182 27.4094 61.3899 27.3623 61.3072C27.2208 61.0521 26.9707 60.9224 26.6149 60.9224C26.259 60.9224 26.0018 61.0507 25.856 61.3072C25.8075 61.3899 25.7717 61.5182 25.7432 61.6921V64.356H23.601V57.6242C23.5695 57.436 23.5295 57.2935 23.4824 57.198C23.328 56.9143 23.0608 56.7718 22.6807 56.7718C22.3005 56.7718 22.0619 56.9129 21.9147 57.198C21.8675 57.2921 21.8318 57.436 21.8075 57.6242V66.0778C21.7846 66.3102 21.7532 66.4826 21.7132 66.5924C21.586 66.9316 21.3674 67.1012 21.0544 67.1012C20.79 67.1012 20.6 67.02 20.4856 66.8575C20.4099 66.7506 20.3727 66.6109 20.3727 66.437C20.3727 66.4099 20.3756 66.3814 20.3784 66.3515C20.3813 66.3216 20.3842 66.303 20.3842 66.2959C20.357 66.122 20.3184 65.9937 20.2713 65.9111C20.1241 65.6588 19.864 65.5319 19.4881 65.5319C19.0366 65.5319 18.7493 65.7073 18.6278 66.0579C18.6078 66.1178 18.595 66.1961 18.5864 66.2945V66.7934C18.6136 66.963 18.6407 67.1354 18.6693 67.3079C18.7836 67.6956 18.9937 68.0106 19.2981 68.2558C19.7168 68.595 20.2913 68.7646 21.0187 68.7646C21.7875 68.7646 22.3934 68.5722 22.8407 68.1902C23.158 67.9222 23.3795 67.5687 23.5052 67.1297C23.5367 66.9402 23.5695 66.7506 23.5996 66.561V66.0636H35.5408C36.1696 66.0636 36.6441 65.9396 36.9599 65.6916C37.3129 65.4151 37.4886 64.9761 37.4886 64.3717" fill="white"/>
<path d="M39.7566 68.388C40.1324 68.388 40.3925 68.2241 40.5397 67.8963C40.5868 67.7894 40.6226 67.6269 40.6469 67.4045V57.7137C40.6197 57.5084 40.5811 57.3545 40.534 57.2519C40.3882 56.944 40.1338 56.79 39.7708 56.79C39.3864 56.79 39.1178 56.944 38.9634 57.2519C38.9148 57.3545 38.8791 57.5084 38.8505 57.7137V67.5756C38.8791 67.7623 38.9163 67.8977 38.9634 67.9847C39.1135 68.2526 39.3793 68.388 39.7594 68.388" fill="white"/>
<path d="M50.5931 63.0262C50.5617 62.8908 50.516 62.7426 50.4574 62.5801C50.3545 62.2608 50.1587 61.9686 49.87 61.7035C49.6528 61.4869 49.3913 61.3287 49.0898 61.2303C48.7868 61.1305 48.4653 61.0636 48.1252 61.0322C48.0108 61.0194 47.9065 61.0137 47.8136 61.0137H47.1763L46.3745 61.0678C45.8644 61.1149 45.3442 61.3201 44.8169 61.6836C44.2895 62.047 43.858 62.5188 43.5264 63.0989C43.3992 63.327 43.2935 63.6292 43.2063 64.004C43.1506 64.2606 43.1234 64.5243 43.1234 64.7908C43.1234 64.8664 43.1263 64.9433 43.1291 65.0246C43.132 65.1058 43.1377 65.1771 43.1477 65.2398C43.1906 65.6788 43.3178 66.1278 43.5279 66.5896C43.7379 67.0514 44.0695 67.4662 44.5253 67.8325C44.8497 68.1005 45.1899 68.2943 45.5457 68.4126C45.74 68.4753 45.9072 68.5224 46.0501 68.5537C46.1931 68.5851 46.346 68.6136 46.5075 68.6364C46.6103 68.6392 46.719 68.6449 46.8333 68.6478C46.9476 68.6506 47.0748 68.6535 47.2134 68.6535L47.4921 68.6236L47.6278 68.5879C47.6836 68.5722 47.7407 68.5509 47.7979 68.5266C47.8551 68.501 47.8965 68.4824 47.9194 68.471C48.0337 68.3998 48.1294 68.3171 48.2052 68.2216C48.2538 68.1617 48.2852 68.1033 48.3038 68.0449C48.3224 67.9864 48.3295 67.9066 48.3295 67.8083C48.3295 67.5945 48.2809 67.432 48.1823 67.3165C48.0837 67.2025 47.9808 67.1255 47.8736 67.0856C47.7665 67.0457 47.6664 67.0258 47.5707 67.0258H47.4321L47.1062 67.0329C46.8733 67.0329 46.6189 66.9972 46.3431 66.926C46.0687 66.8547 45.7915 66.7222 45.5114 66.5283C45.2327 66.3345 45.0412 66.0608 44.9355 65.7059C44.8297 65.351 44.7783 65.0403 44.7783 64.7766C44.7783 64.6469 44.7897 64.5243 44.814 64.4103C44.854 64.2449 44.9026 64.0938 44.9598 63.9584C45.0169 63.823 45.0784 63.709 45.147 63.6178C45.3056 63.4168 45.4557 63.2757 45.5986 63.1973L45.8301 63.079L45.7943 63.2686C45.7943 63.2842 45.7915 63.3113 45.7829 63.3512V63.4339C45.7829 63.4852 45.7829 63.5379 45.7858 63.5935C45.7886 63.6491 45.7886 63.7061 45.7886 63.7646C45.7972 63.8658 45.8144 63.977 45.8429 64.0953C45.8701 64.2136 45.903 64.3319 45.9444 64.4502C46.0201 64.6996 46.1573 64.9519 46.3603 65.2084C46.4389 65.3111 46.526 65.4009 46.6218 65.4778C46.7175 65.5548 46.8218 65.6204 46.9362 65.676C47.142 65.7857 47.3592 65.8684 47.5893 65.9254C47.7279 65.9653 47.8336 65.9924 47.9065 66.0081C47.9794 66.0237 48.0494 66.0323 48.1166 66.0323C48.2038 66.0451 48.2581 66.0508 48.2766 66.0522C48.2966 66.0551 48.3166 66.0551 48.3366 66.0551C48.5381 66.0551 48.7468 66.0195 48.9612 65.9482C49.1769 65.8769 49.397 65.7743 49.6228 65.6403C50.0544 65.3909 50.3631 64.9619 50.5488 64.3504L50.6017 64.0896C50.6289 63.9627 50.6432 63.8016 50.6432 63.6049V63.4268C50.6432 63.2914 50.6274 63.1574 50.596 63.022L50.5931 63.0262ZM48.804 64.1266C48.6439 64.2848 48.451 64.3646 48.2252 64.3646C47.9994 64.3646 47.8008 64.2848 47.6407 64.1252C47.4806 63.9656 47.4006 63.7746 47.4006 63.5536C47.4006 63.3327 47.4821 63.146 47.645 62.992C47.7993 62.8296 47.9937 62.7483 48.2266 62.7483C48.4596 62.7483 48.6439 62.8281 48.8054 62.9878C48.9654 63.1474 49.0455 63.3356 49.0455 63.5536C49.0455 63.7717 48.9654 63.9698 48.8054 64.128L48.804 64.1266Z" fill="white"/>
<path d="M50.6417 61.0117H43.122V68.6587H50.6417V61.0117Z" fill="white"/>
<path d="M52.6096 65.4832C52.9282 65.7825 53.3598 65.9821 53.9057 66.0804H53.93L53.5384 66.7489L53.3427 67.0981L53.2655 67.2278L53.2055 67.3632C53.1897 67.4174 53.1797 67.4758 53.174 67.5385C53.1683 67.5998 53.1655 67.6868 53.1655 67.8022C53.1655 67.9832 53.2741 68.1386 53.4913 68.264C53.6542 68.3581 53.7985 68.4051 53.9257 68.4051C53.9686 68.4051 54.0129 68.3994 54.0558 68.388C54.1458 68.3638 54.2215 68.3396 54.2816 68.3111C54.3416 68.2826 54.4002 68.2469 54.4588 68.2042C54.5416 68.1386 54.6245 68.0402 54.7088 67.9148L54.7389 67.8621L54.7746 67.8079L55.2262 67.0026L55.7478 66.0676H68.1649C68.2878 66.0562 68.385 66.0419 68.4564 66.0262C68.6779 65.9707 68.8609 65.8737 69.0023 65.7369C69.1895 65.5502 69.3053 65.325 69.3525 65.0556C69.361 65.0128 69.3639 64.9544 69.3639 64.8845V61.9826C69.3367 61.7859 69.301 61.6391 69.2567 61.545C69.1138 61.2528 68.8623 61.106 68.5022 61.106C68.142 61.106 67.8977 61.2528 67.7548 61.545C67.7076 61.6405 67.6719 61.7859 67.6476 61.9826V63.978C67.6447 64.0265 67.639 64.0621 67.6362 64.0906C67.6204 64.1733 67.5904 64.236 67.5476 64.2774C67.5047 64.3187 67.4575 64.3415 67.4061 64.3458C67.3546 64.35 67.3046 64.3515 67.2575 64.3515H65.3339C65.3539 64.2973 65.3682 64.2503 65.3754 64.2161C65.4268 64.0065 65.4525 63.7785 65.4525 63.529C65.4525 63.3195 65.4311 63.1072 65.3868 62.8891C65.3425 62.6724 65.2682 62.4572 65.161 62.2434C65.0095 61.9426 64.7809 61.6861 64.4722 61.4737C64.2507 61.3226 64.0049 61.2057 63.7377 61.1188C63.5619 61.0646 63.4504 61.0361 63.4004 61.0361H58.7474C58.5087 61.076 58.3287 61.1758 58.2015 61.3355C58.0743 61.4951 58.0114 61.6775 58.0114 61.8842C58.0114 62.0909 58.0743 62.2719 58.2015 62.4315C58.3287 62.5912 58.5144 62.6981 58.7602 62.7494H62.9217C63.0989 62.7736 63.2304 62.8064 63.3132 62.8506C63.5705 62.9803 63.6991 63.2098 63.6991 63.5376C63.6991 63.8854 63.5719 64.1277 63.3189 64.2645C63.2361 64.3073 63.1089 64.3415 62.9388 64.3657H57.4955V64.3529H56.6824C56.781 64.1277 56.831 63.8754 56.831 63.596C56.831 62.9219 56.5838 62.3417 56.0893 61.8586C55.5949 61.3754 55.0075 61.1331 54.3259 61.1331C53.7528 61.1331 53.2398 61.3098 52.7853 61.6633C52.3323 62.0168 52.0351 62.4572 51.8979 62.986C51.8421 63.1998 51.815 63.4093 51.815 63.6203C51.815 63.864 51.855 64.1177 51.9336 64.3771C52.0679 64.8161 52.2937 65.1839 52.6138 65.4846M53.6928 63.0487C53.8514 62.8862 54.0458 62.805 54.2744 62.805C54.5031 62.805 54.6974 62.8848 54.856 63.0444C55.0147 63.2041 55.0947 63.3951 55.0947 63.616C55.0947 63.8369 55.0118 64.0265 54.8475 64.1833C54.6831 64.3415 54.4931 64.4213 54.2744 64.4213C54.0458 64.4213 53.85 64.3415 53.6899 64.1819C53.5313 64.0222 53.4498 63.8341 53.4498 63.616C53.4498 63.3865 53.5313 63.1984 53.6942 63.0473" fill="white"/>
<path d="M61.2425 68.5789C61.4955 68.5789 61.7098 68.4905 61.8842 68.3124C62.0585 68.1356 62.1457 67.9204 62.1457 67.6724C62.1457 67.4244 62.0571 67.2106 61.8813 67.0367C61.7055 66.8614 61.4926 66.7744 61.2439 66.7744C60.9953 66.7744 60.7809 66.8628 60.6009 67.0367C60.4208 67.212 60.3308 67.4244 60.3308 67.6724C60.3308 67.9204 60.4208 68.1342 60.6037 68.3124C60.7866 68.4905 60.9982 68.5789 61.2454 68.5789" fill="white"/>
<path d="M68.5007 58.7875C68.7537 58.7875 68.968 58.6991 69.1424 58.521C69.3167 58.3442 69.4039 58.129 69.4039 57.881C69.4039 57.633 69.3153 57.4163 69.1395 57.2453C68.9638 57.0743 68.7508 56.9873 68.5022 56.9873C68.2535 56.9873 68.0391 57.0743 67.8619 57.2481C67.6847 57.422 67.5947 57.633 67.5947 57.881C67.5947 58.129 67.6833 58.3428 67.8619 58.521C68.0406 58.6991 68.2535 58.7875 68.5036 58.7875" fill="white"/>
<path d="M73.138 58.6028C73.3996 58.6028 73.6182 58.5144 73.794 58.3362C73.9698 58.1595 74.0584 57.9442 74.0584 57.6962C74.0584 57.4482 73.9698 57.223 73.7883 57.0449C73.6068 56.8667 73.391 56.7783 73.138 56.7783C72.8851 56.7783 72.6693 56.8667 72.4907 57.0449C72.3121 57.2216 72.2234 57.4397 72.2234 57.6962C72.2234 57.9528 72.3121 58.1695 72.4907 58.3362C72.665 58.513 72.8794 58.6028 73.138 58.6028Z" fill="white"/>
<path d="M75.4874 58.6028C75.7489 58.6028 75.9619 58.5144 76.1291 58.3362C76.3106 58.158 76.402 57.9442 76.402 57.6962C76.402 57.4354 76.312 57.2216 76.1291 57.0506C75.9519 56.8695 75.7375 56.7783 75.4874 56.7783C75.2373 56.7783 75.0101 56.8681 74.8401 57.0506C74.6529 57.2245 74.5614 57.4397 74.5614 57.6962C74.5614 57.9528 74.6543 58.1666 74.8401 58.3362C75.0058 58.513 75.2216 58.6028 75.4874 58.6028Z" fill="white"/>
<path d="M86.1282 61.2358C85.8596 61.1218 85.5738 61.0648 85.2737 61.0648C85.2494 61.0648 85.2194 61.0676 85.1779 61.0705H80.6335L83.0615 59.6551C83.1601 59.5767 83.2315 59.5083 83.2744 59.4541C83.413 59.2845 83.483 59.1049 83.483 58.9154C83.483 58.7614 83.4387 58.6132 83.3487 58.4706C83.2601 58.3281 83.1629 58.2312 83.0586 58.1785C82.9543 58.1257 82.8357 58.0986 82.7056 58.0986C82.5756 58.0986 82.4284 58.13 82.2783 58.1927C82.2312 58.2127 82.1697 58.244 82.0954 58.2882L79.0487 60.1112C78.8743 60.2381 78.7443 60.3492 78.6571 60.4476C78.3956 60.7512 78.2655 61.0975 78.2655 61.4838C78.2655 61.5864 78.2741 61.6834 78.2898 61.7746C78.3327 62.0796 78.4827 62.3191 78.7414 62.4972C78.9186 62.6198 79.1416 62.7068 79.4059 62.7581C79.5331 62.7809 79.646 62.7937 79.7503 62.7937H85.1508C85.2694 62.8165 85.3894 62.8393 85.5066 62.8593C85.7324 62.9704 85.8439 63.2085 85.8439 63.5748C85.8439 63.8513 85.7252 64.0608 85.488 64.2034C85.3137 64.306 85.1236 64.3573 84.9178 64.3573H77.1566L77.0794 64.3516L76.9851 64.3288L76.8965 64.2689L76.8436 64.2162L76.8379 64.1863L76.8322 64.1563V60.8111L76.8265 60.7754L76.8136 60.6814L76.7779 60.5388C76.765 60.479 76.745 60.4248 76.7121 60.3735L76.605 60.2267C76.5778 60.1953 76.5521 60.1711 76.5278 60.1554C76.5035 60.1397 76.4706 60.1183 76.4263 60.0898C76.3634 60.0513 76.2963 60.0214 76.2248 60.0043C76.1534 59.9872 76.0919 59.9787 76.0419 59.9787H75.8833C75.6932 59.9787 75.5346 60.0271 75.4088 60.1255C75.3445 60.1725 75.3059 60.2039 75.2902 60.221C75.2502 60.2637 75.2073 60.3264 75.1602 60.4048C75.113 60.5117 75.083 60.6058 75.0716 60.6885L75.0601 60.8125V61.2159C74.8158 61.1289 74.5543 61.0847 74.277 61.0847C73.9398 61.0847 73.6254 61.146 73.3295 61.2714C73.0337 61.3954 72.7794 61.5636 72.5664 61.7746C72.3535 61.9855 72.182 62.2321 72.0534 62.5143C71.9248 62.7966 71.859 63.0916 71.859 63.4037C71.859 63.5691 71.8748 63.7273 71.9062 63.8741C71.9376 64.0209 71.9848 64.1706 72.0491 64.3145C72.1792 64.5939 72.3549 64.8419 72.575 65.0543C72.7951 65.2667 73.0495 65.4349 73.341 65.5546C73.6325 65.6743 73.9426 65.7356 74.2756 65.7356C74.4899 65.7356 74.6814 65.7142 74.8515 65.67C74.9544 65.643 75.0444 65.6159 75.1187 65.5874C75.1945 65.5603 75.2774 65.5247 75.3688 65.4805L75.4103 65.5161L75.4631 65.5646L75.5875 65.7L75.7961 65.8297C75.859 65.8724 75.9404 65.9109 76.0405 65.9423C76.1391 65.9822 76.2148 66.0064 76.2663 66.0164C76.3177 66.0264 76.372 66.0349 76.4306 66.042C76.4892 66.0506 76.5449 66.0563 76.6021 66.0592C76.6593 66.062 76.7121 66.0663 76.7593 66.0663H85.5623C86.2711 65.9637 86.797 65.603 87.1415 64.983C87.4101 64.497 87.5459 63.9026 87.5459 63.1999C87.5459 62.9248 87.443 62.6056 87.2372 62.2407C86.96 61.7632 86.5927 61.4282 86.134 61.2344M75.013 63.7173C74.973 63.8071 74.9172 63.8884 74.8429 63.9611C74.77 64.0323 74.6857 64.0836 74.5914 64.115C74.5014 64.162 74.3985 64.1863 74.2885 64.1863C74.1784 64.1863 74.0827 64.1635 73.9912 64.115C73.8969 64.0836 73.8111 64.0323 73.7383 63.9611C73.6654 63.8898 73.6082 63.8071 73.5682 63.7116C73.5282 63.6161 73.5082 63.522 73.5082 63.428C73.5082 63.3254 73.5282 63.2256 73.5696 63.1287C73.6111 63.0317 73.6654 62.9533 73.7325 62.8949C73.8111 62.8165 73.9012 62.7595 73.9998 62.7239C74.0984 62.6882 74.1927 62.6697 74.2842 62.6697C74.3956 62.6697 74.4957 62.6897 74.5871 62.7296C74.6857 62.7652 74.7715 62.8194 74.8429 62.892C74.9144 62.9633 74.9701 63.0474 75.0087 63.1372C75.0516 63.2127 75.0744 63.3082 75.0744 63.4266C75.0744 63.5377 75.053 63.6332 75.0087 63.7173" fill="white"/>
<path d="M96.7776 60.574C97.0392 60.574 97.2607 60.4842 97.4421 60.3017C97.6236 60.1193 97.7151 59.8998 97.7151 59.639C97.7151 59.3781 97.6236 59.1529 97.4421 58.9705C97.2607 58.788 97.0377 58.6982 96.7776 58.6982C96.5175 58.6982 96.3003 58.7895 96.116 58.9733C95.9316 59.1572 95.8402 59.3781 95.8402 59.639C95.8402 59.8998 95.9331 60.1207 96.1188 60.3017C96.3046 60.4828 96.5247 60.574 96.7776 60.574Z" fill="white"/>
<path d="M97.9595 58.2654C98.221 58.2654 98.4425 58.1756 98.624 57.9932C98.8055 57.8107 98.8969 57.5912 98.8969 57.3304C98.8969 57.0695 98.8055 56.8443 98.624 56.6619C98.4425 56.4794 98.2195 56.3896 97.9595 56.3896C97.6994 56.3896 97.4821 56.4809 97.2978 56.6647C97.1134 56.8486 97.022 57.0695 97.022 57.3304C97.022 57.5912 97.1149 57.8121 97.3007 57.9932C97.4864 58.1742 97.7065 58.2654 97.9595 58.2654Z" fill="white"/>
<path d="M98.161 59.639C98.161 59.8998 98.251 60.1207 98.4339 60.3017C98.6154 60.4828 98.8355 60.574 99.0927 60.574C99.3499 60.574 99.5757 60.4842 99.7572 60.3017C99.9387 60.1193 100.03 59.8984 100.03 59.639C100.03 59.3796 99.9401 59.1515 99.7572 58.9705C99.5743 58.7895 99.3542 58.6982 99.0927 58.6982C98.8312 58.6982 98.6168 58.7923 98.4339 58.9762C98.251 59.1615 98.161 59.3824 98.161 59.639Z" fill="white"/>
<path d="M102.001 61.6994C101.977 61.5255 101.941 61.3972 101.894 61.3145C101.752 61.0594 101.502 60.9297 101.146 60.9297C100.79 60.9297 100.542 61.0594 100.399 61.3145C100.352 61.3972 100.316 61.5255 100.292 61.6994V64.3747H98.8083V61.6994C98.7812 61.5255 98.7454 61.3972 98.7011 61.3145C98.5597 61.0594 98.3124 60.9297 97.9595 60.9297C97.6065 60.9297 97.3535 61.0594 97.2121 61.3145C97.1635 61.3972 97.1292 61.5255 97.1049 61.6994V64.3747H95.6215V61.6994C95.5972 61.5255 95.5615 61.3972 95.5143 61.3145C95.3714 61.0594 95.1213 60.9297 94.7669 60.9297C94.4125 60.9297 94.1553 61.0594 94.0138 61.3145C93.9652 61.3972 93.9309 61.5255 93.9066 61.6994V64.3576H91.4201V61.9189C91.3929 61.6979 91.3543 61.534 91.3072 61.4271C91.1571 61.1036 90.897 60.9411 90.5298 60.9411C90.1625 60.9411 89.8895 61.105 89.7395 61.4328C89.6923 61.5397 89.6537 61.7008 89.6266 61.9189C89.6266 62.097 89.6295 62.3351 89.6323 62.633C89.6352 62.9309 89.6395 63.3072 89.6409 63.7618C89.6437 64.2165 89.6437 64.6869 89.6437 65.1772C89.6437 65.6675 89.6409 66.0552 89.638 66.3189C89.6352 66.5826 89.6266 66.7223 89.6152 66.7337C89.5723 66.7764 89.5065 66.8106 89.4194 66.8349C89.4037 66.8377 89.3837 66.8434 89.3594 66.8463C89.205 66.8734 89.0921 66.909 89.0207 66.9532C88.7992 67.0914 88.6891 67.338 88.6891 67.6929C88.6891 68.1191 88.9049 68.3899 89.3365 68.5039C89.4079 68.5239 89.5051 68.5381 89.628 68.5453L90.1739 68.5339C90.3083 68.5182 90.4154 68.4997 90.494 68.4811C90.7327 68.4141 90.9256 68.2973 91.0757 68.1319C91.2257 67.9666 91.3286 67.7385 91.3843 67.4506C91.4001 67.3551 91.4115 67.2268 91.4201 67.0658V66.0695H100.365C100.618 66.0695 100.835 66.0467 101.018 65.9982C101.248 65.9383 101.439 65.8357 101.594 65.6903C101.712 65.5806 101.814 65.4352 101.897 65.2527C101.921 65.1972 101.954 65.1059 101.998 64.9805L102.009 64.8508V61.6837L102.007 61.7008L102.001 61.6994Z" fill="white"/>
</g>
<defs>
<clipPath id="clip0_108_795">
<rect width="112" height="80" fill="white"/>
</clipPath>
</defs>
</svg>
