<svg width="45" height="45" viewBox="0 0 45 45" fill="none" xmlns="http://www.w3.org/2000/svg">
<path d="M31.0315 28.4658H32.4833V30.1717H31.0315V28.4658Z" fill="white"/>
<path d="M10.311 17.4863H23.9841V18.9381H10.311V17.4863Z" fill="white"/>
<path d="M10.311 21.1572H23.9841V22.609H10.311V21.1572Z" fill="white"/>
<path d="M10.311 24.8291H23.9841V26.2809H10.311V24.8291Z" fill="white"/>
<path d="M35.057 0.189503C33.9279 1.24424 30.7415 4.0669 29.2139 4.81058H25.7586C24.1536 4.81058 22.8477 6.45148 22.8477 8.46803C22.8477 10.1728 23.7819 11.6046 25.0403 12.0082L25.4882 13.6873H21.7422L17.7221 9.85559C17.4423 9.58991 17.0039 9.58846 16.7237 9.85269L12.6543 13.6873H6.35454C5.95384 13.6873 5.62864 14.0125 5.62864 14.4132V20.3202C2.6481 23.1417 2.53449 23.2651 2.48368 23.3214C2.43287 23.3777 2.48332 23.3218 2.48332 23.3218C2.05032 23.7998 1.81186 24.4092 1.81186 25.0371V42.4122C1.81186 43.8346 3.03754 44.9997 4.44325 44.9997H29.8519C31.2656 44.9997 32.4833 43.8397 32.4833 42.4122V31.4627H31.0315V42.4122C31.0315 42.4659 31.0228 42.5178 31.0152 42.5701L20.4294 32.369L31.0286 24.9605C31.0304 24.9855 31.0315 25.0109 31.0315 25.0371V27.018H32.4833V25.0371C32.447 23.8695 31.9142 23.3893 31.769 23.2724C31.7222 23.2347 31.6101 23.1065 28.6876 20.3136L28.6763 17.12C28.8821 17.12 29.093 17.1346 29.2984 17.12C29.7619 17.0874 30.1339 16.6892 30.0051 16.2072L28.9162 12.1255H29.2164C30.703 12.8343 33.9141 15.6704 35.057 16.7339C35.5118 17.1563 36.2772 16.821 36.2772 16.2025L36.278 0.720499C36.2783 0.100943 35.511 -0.234423 35.057 0.189503C35.2686 -0.00794227 33.9275 1.2446 35.057 0.189503ZM30.1978 23.77L28.7032 24.8146L28.6945 22.3291C29.4226 23.0256 29.8944 23.4782 30.1978 23.77ZM28.6556 10.6737H27.5505V6.26238H28.6556V10.6737ZM25.7586 6.26238H26.0987V10.6733H25.7586C24.9677 10.6733 24.2995 9.66323 24.2995 8.46767C24.2995 7.27211 24.9681 6.26238 25.7586 6.26238ZM17.2184 11.3814L19.6378 13.6873H14.7714L17.2184 11.3814ZM5.62864 22.32V24.8795L4.13292 23.7424C4.44434 23.4444 4.9169 22.9951 5.62864 22.32ZM3.26366 25.0371C3.26366 24.9935 3.2662 24.9514 3.27128 24.9108L13.4571 32.6558L3.26366 42.4118V25.0371ZM29.935 43.5453C29.9075 43.5472 29.8799 43.5482 29.8519 43.5482H4.44325C4.36122 43.5482 4.28065 43.5399 4.20152 43.5239L17.1011 31.1782L29.935 43.5453ZM27.255 25.8268L19.3641 31.3426L17.6067 29.6491C17.3269 29.3783 16.8826 29.3779 16.601 29.6473L14.5191 31.6399L7.08044 25.9833V15.1391H12.9424H21.4515H25.8754L26.2598 16.5811C26.3854 17.0518 26.81 17.12 27.2242 17.12L27.255 25.8268ZM28.3584 15.6682H27.5189L26.5745 12.1255H27.414L28.3584 15.6682ZM34.8258 14.5707C33.5253 13.4256 31.474 11.7005 30.1074 10.9495V5.984C31.4907 5.21854 33.5315 3.49888 34.8265 2.35523L34.8258 14.5707Z" fill="white"/>
<path d="M38.8941 12.2431L38.0201 11.0839C38.7224 10.5547 39.1587 9.5424 39.1587 8.4423C39.1587 7.34256 38.7228 6.33066 38.0208 5.80148L38.8948 4.64258C39.9692 5.45268 40.6105 6.87327 40.6105 8.44266C40.6101 10.0121 39.9688 11.4326 38.8941 12.2431Z" fill="white"/>
<path d="M38.3613 16.0494L37.9784 14.6491C40.1557 14.0543 41.7363 11.4497 41.7363 8.45612C41.7363 5.44763 40.147 2.84092 37.9577 2.25729L38.3311 0.854492C41.1455 1.60471 43.1881 4.80157 43.1881 8.45612C43.1881 12.0918 41.1582 15.2857 38.3613 16.0494Z" fill="white"/>
</svg>
