<svg width="45" height="45" viewBox="0 0 45 45" fill="none" xmlns="http://www.w3.org/2000/svg">
<path fill-rule="evenodd" clip-rule="evenodd" d="M3.50399 11.8406H5.39662V5.83053C5.39662 5.5911 5.59081 5.39687 5.8303 5.39687H11.8399V3.50403H4.45033C3.92851 3.50403 3.50399 3.92871 3.50399 4.45092V11.8406ZM5.8303 12.7079H3.07033C2.83084 12.7079 2.63665 12.5137 2.63665 12.2743V4.45089C2.63665 3.4507 3.45027 2.63672 4.45033 2.63672H12.2736C12.5131 2.63672 12.7072 2.83097 12.7072 3.07038V5.83053C12.7072 6.06996 12.5131 6.26424 12.2736 6.26424L6.26398 6.26419V12.2743C6.26398 12.5137 6.06981 12.7079 5.8303 12.7079ZM39.6035 11.8406H41.4961V4.45089C41.4961 3.92869 41.0715 3.50406 40.5497 3.50406L33.1602 3.50403V5.39687H39.1698C39.4093 5.39687 39.6034 5.59112 39.6034 5.83055L39.6035 11.8406ZM41.9298 12.7079H39.1698C38.9303 12.7079 38.7361 12.5137 38.7361 12.2743V6.26419H32.7265C32.487 6.26419 32.2928 6.06996 32.2928 5.83055L32.2928 3.07035C32.2928 2.83094 32.487 2.63672 32.7265 2.63672H40.5498C41.5499 2.63672 42.3634 3.45076 42.3634 4.45092V12.2743C42.3634 12.5137 42.1693 12.7079 41.9298 12.7079ZM3.50394 33.1603V40.55C3.50394 41.0722 3.92846 41.496 4.45028 41.496L11.8398 41.496V39.604H5.83025C5.59076 39.604 5.39656 39.4098 5.39656 39.1704V33.1603H3.50394ZM12.2735 42.3634H4.45028C3.45022 42.3634 2.63659 41.5502 2.63659 40.55V32.7266C2.63659 32.4872 2.83079 32.293 3.07028 32.293H5.83025C6.06976 32.293 6.26393 32.4872 6.26393 32.7266V38.7367H12.2735C12.513 38.7367 12.7072 38.9301 12.7072 39.1704V41.9296C12.7072 42.17 12.513 42.3634 12.2735 42.3634ZM33.1601 41.496H40.5497C41.0715 41.496 41.496 41.0722 41.496 40.55V33.1603H39.6034V39.1703C39.6034 39.4098 39.4092 39.6041 39.1697 39.6041L33.1601 39.604V41.496ZM40.5497 42.3634H32.7265C32.487 42.3634 32.2928 42.17 32.2928 41.9296L32.2928 39.1703C32.2928 38.93 32.4869 38.7367 32.7265 38.7367L38.736 38.7367V32.7266C38.736 32.4872 38.9302 32.293 39.1697 32.293H41.9297C42.1693 32.293 42.3634 32.4872 42.3634 32.7266V40.55C42.3634 41.5502 41.5498 42.3634 40.5497 42.3634Z" fill="white"/>
<path fill-rule="evenodd" clip-rule="evenodd" d="M21.5597 30.6459C21.5531 30.6459 21.5465 30.6459 21.5398 30.645C15.7827 30.3866 9.95822 27.7566 4.228 22.8289C4.13221 22.7467 4.07706 22.6265 4.07706 22.5C4.07706 22.3735 4.13221 22.2543 4.228 22.1712C9.95822 17.2435 15.7827 14.6143 21.5398 14.355C21.78 14.3441 21.9818 14.5294 21.9925 14.7688C22.0033 15.0083 21.8181 15.2107 21.5788 15.2215C16.1487 15.4663 10.6339 17.9139 5.18018 22.5C10.6339 27.087 16.1487 29.5346 21.5788 29.7786C21.8181 29.7894 22.0033 29.9927 21.9925 30.2321C21.9821 30.4643 21.7902 30.6459 21.5597 30.6459ZM23.4345 30.6459C23.204 30.6459 23.012 30.4643 23.0015 30.2321C22.9909 29.9927 23.1762 29.7903 23.4155 29.7795C28.8472 29.5364 34.364 27.0889 39.82 22.5C34.364 17.912 28.8472 15.4636 23.4155 15.2215C23.1762 15.2106 22.9909 15.0083 23.0015 14.7688C23.0123 14.5294 23.2143 14.3433 23.4542 14.355C29.2129 14.6116 35.0395 17.2417 40.7721 22.1712C40.868 22.2543 40.9231 22.3735 40.9231 22.5C40.9231 22.6265 40.868 22.7467 40.7722 22.8289C35.0396 27.7592 29.2129 30.3884 23.4542 30.6459C23.4476 30.6459 23.441 30.6459 23.4345 30.6459Z" fill="white"/>
<path fill-rule="evenodd" clip-rule="evenodd" d="M12.6972 21.997C12.6835 21.997 12.6698 21.9962 12.6558 21.9944C12.4174 21.9717 12.2423 21.7604 12.2649 21.5218C12.4745 19.3037 13.2436 17.4037 14.5506 15.8732C14.7061 15.6907 14.9799 15.6699 15.162 15.8253C15.3442 15.9807 15.3657 16.2545 15.2102 16.4361C14.0213 17.8283 13.3209 19.5667 13.1284 21.6041C13.1072 21.8281 12.9182 21.9971 12.6972 21.997ZM32.303 21.997C32.0819 21.997 31.8929 21.8281 31.8717 21.6041C31.6792 19.5667 30.9788 17.8284 29.7899 16.4361C29.6343 16.2544 29.6558 15.9807 29.8379 15.8244C30.0201 15.669 30.2938 15.6907 30.4494 15.8732C31.7565 17.4037 32.5256 19.3038 32.7353 21.5218C32.7578 21.7603 32.5828 21.9718 32.3443 21.9944C32.3304 21.9962 32.3166 21.9971 32.303 21.997ZM14.8806 29.2801C14.7581 29.2801 14.6364 29.2287 14.5506 29.1284C13.2436 27.5978 12.4745 25.6969 12.2649 23.4788C12.2423 23.2403 12.4174 23.0289 12.6558 23.0063C12.8936 22.9837 13.1059 23.159 13.1284 23.3975C13.3209 25.4339 14.0213 27.1732 15.2102 28.5646C15.3657 28.7471 15.3442 29.0208 15.162 29.1763C15.0803 29.2458 14.9803 29.2801 14.8806 29.2801ZM30.1194 29.2801C30.0197 29.2801 29.9196 29.2458 29.8379 29.1763C29.6558 29.0208 29.6342 28.7471 29.7898 28.5655C30.9788 27.1732 31.6793 25.4349 31.8717 23.3975C31.8943 23.1589 32.1061 22.9837 32.3443 23.0063C32.5828 23.0288 32.7578 23.2403 32.7353 23.4788C32.5256 25.6969 31.7565 27.5978 30.4494 29.1284C30.3636 29.2286 30.2418 29.2801 30.1194 29.2801Z" fill="white"/>
<path fill-rule="evenodd" clip-rule="evenodd" d="M22.5001 20.1945C21.2285 20.1945 20.1941 21.229 20.1941 22.5002C20.1941 23.7723 21.2285 24.8068 22.5 24.8068C23.7716 24.8068 24.8061 23.7723 24.8061 22.5002C24.8061 21.229 23.7716 20.1945 22.5001 20.1945ZM22.5001 25.6742C20.7502 25.6742 19.3266 24.2503 19.3266 22.5002C19.3266 20.751 20.7502 19.3271 22.5 19.3271C24.2499 19.3271 25.6736 20.7511 25.6736 22.5002C25.6736 24.2503 24.2499 25.6742 22.5001 25.6742Z" fill="white"/>
<path fill-rule="evenodd" clip-rule="evenodd" d="M22.5001 17.8195C19.9187 17.8195 17.8186 19.9192 17.8186 22.5005C17.8186 25.0817 19.9187 27.1824 22.5 27.1824C25.0815 27.1824 27.1816 25.0818 27.1816 22.5005C27.1816 19.9192 25.0815 17.8195 22.5001 17.8195ZM22.5001 28.0497C19.4404 28.0497 16.9511 25.5606 16.9511 22.5005C16.9511 19.4412 19.4403 16.9521 22.5 16.9521C25.5597 16.9521 28.049 19.4413 28.049 22.5005C28.049 25.5606 25.5597 28.0498 22.5001 28.0497Z" fill="white"/>
<path fill-rule="evenodd" clip-rule="evenodd" d="M21.5593 17.9056C21.3198 17.9056 21.1256 17.7114 21.1256 17.472V11.7655C21.1256 11.1385 21.6357 10.6289 22.2626 10.6289L22.7316 10.6289C23.3585 10.6289 23.8686 11.1385 23.8686 11.7655V17.4702C23.8686 17.7096 23.6744 17.9039 23.4349 17.9039C23.1954 17.9038 23.0012 17.7096 23.0012 17.4702V11.7655C23.0012 11.6173 22.8802 11.4963 22.7316 11.4963L22.2626 11.4962C22.114 11.4962 21.993 11.6174 21.993 11.7655V17.472C21.993 17.7114 21.7988 17.9057 21.5593 17.9056ZM22.7316 34.3718H22.2626C21.6357 34.3718 21.1256 33.8614 21.1256 33.2343V27.5288C21.1256 27.2893 21.3198 27.0951 21.5593 27.0951C21.7989 27.0951 21.993 27.2894 21.993 27.5288V33.2343C21.993 33.3834 22.114 33.5045 22.2626 33.5045L22.7316 33.5045C22.8802 33.5045 23.0012 33.3834 23.0012 33.2343V27.5297C23.0012 27.2902 23.1954 27.096 23.4349 27.096C23.6744 27.096 23.8686 27.2902 23.8686 27.5297V33.2343C23.8686 33.8614 23.3585 34.3718 22.7316 34.3718Z" fill="white"/>
<path fill-rule="evenodd" clip-rule="evenodd" d="M17.4709 23.872H11.7041C11.0773 23.872 10.5672 23.3624 10.5672 22.7354V22.2665C10.5672 21.6394 11.0773 21.129 11.7041 21.129L17.4709 21.1289C17.7104 21.1289 17.9045 21.3232 17.9045 21.5626C17.9045 21.803 17.7103 21.9963 17.4709 21.9963L11.7041 21.9963C11.5555 21.9963 11.4346 22.1174 11.4346 22.2665L11.4346 22.7353C11.4346 22.8835 11.5555 23.0046 11.7041 23.0046L17.4709 23.0046C17.7104 23.0046 17.9045 23.1989 17.9045 23.4383C17.9045 23.6777 17.7103 23.872 17.4709 23.872ZM33.173 23.872H27.5292C27.2897 23.872 27.0956 23.6777 27.0956 23.4383C27.0956 23.1988 27.2897 23.0046 27.5292 23.0046L33.173 23.0046C33.3217 23.0046 33.4426 22.8835 33.4426 22.7354V22.2665C33.4426 22.1173 33.3216 21.9963 33.173 21.9963L27.5292 21.9963C27.2897 21.9963 27.0956 21.803 27.0956 21.5626C27.0956 21.3232 27.2897 21.129 27.5292 21.129L33.173 21.1289C33.8 21.1289 34.31 21.6394 34.31 22.2665L34.31 22.7353C34.31 23.3624 33.7999 23.872 33.173 23.872Z" fill="white"/>
<path fill-rule="evenodd" clip-rule="evenodd" d="M30.2175 11.4488C30.1439 11.4488 30.0693 11.4308 30.001 11.391C29.7936 11.2709 29.7225 11.0062 29.8422 10.7984L31.3633 8.16374C31.483 7.95685 31.7483 7.8855 31.9557 8.00569C32.1632 8.12491 32.2342 8.39058 32.1144 8.59745L30.5934 11.232C30.5131 11.3711 30.3673 11.4489 30.2175 11.4488Z" fill="white"/>
<path fill-rule="evenodd" clip-rule="evenodd" d="M14.7827 11.4488C14.6328 11.4488 14.487 11.3712 14.4067 11.232L12.8857 8.59744C12.7659 8.39057 12.837 8.12493 13.0444 8.00568C13.2519 7.8855 13.5171 7.95686 13.6367 8.16378L15.1578 10.7983C15.2776 11.0061 15.2065 11.2709 14.9991 11.391C14.9308 11.4308 14.8563 11.4489 14.7827 11.4488Z" fill="white"/>
<path fill-rule="evenodd" clip-rule="evenodd" d="M22.5001 9.38009C22.2605 9.38009 22.0664 9.1868 22.0664 8.94646V5.90436C22.0664 5.66493 22.2605 5.4707 22.5 5.4707C22.7396 5.47065 22.9337 5.66495 22.9337 5.90439V8.94646C22.9337 9.1868 22.7396 9.38011 22.5001 9.38009Z" fill="white"/>
<path fill-rule="evenodd" clip-rule="evenodd" d="M22.5001 39.5295C22.2605 39.5295 22.0664 39.3353 22.0664 39.0959V36.0537C22.0664 35.8144 22.2605 35.6201 22.5 35.6201C22.7396 35.6201 22.9337 35.8144 22.9337 36.0538V39.0958C22.9337 39.3353 22.7396 39.5295 22.5001 39.5295Z" fill="white"/>
<path fill-rule="evenodd" clip-rule="evenodd" d="M31.7393 37.0534C31.5895 37.0534 31.4437 36.9757 31.3634 36.8365L29.8423 34.202C29.7226 33.9951 29.7936 33.7294 30.0011 33.6102C30.2084 33.49 30.4738 33.5614 30.5935 33.7683L32.1145 36.4029C32.2342 36.6106 32.1632 36.8754 31.9557 36.9956C31.8875 37.0353 31.8129 37.0534 31.7393 37.0534Z" fill="white"/>
<path fill-rule="evenodd" clip-rule="evenodd" d="M13.2608 37.0534C13.1873 37.0534 13.1127 37.0353 13.0444 36.9956C12.837 36.8754 12.7659 36.6107 12.8857 36.4029L14.4067 33.7682C14.5265 33.5613 14.7917 33.49 14.9991 33.6102C15.2065 33.7294 15.2776 33.9951 15.1578 34.202L13.6368 36.8365C13.5565 36.9757 13.4107 37.0534 13.2608 37.0534Z" fill="white"/>
</svg>
